<?xml version="1.0" encoding="UTF-8"?>
<svg width="363px" height="363px" viewBox="0 0 363 363" version="1.1" xmlns="http://www.w3.org/2000/svg" xmlns:xlink="http://www.w3.org/1999/xlink">
    <!-- Generator: Sketch 61.1 (89650) - https://sketch.com -->
    <title>Group 13</title>
    <desc>Created with Sketch.</desc>
    <defs>
        <polygon id="path-1" points="0 0 362 0 362 363 0 363"></polygon>
        <polygon id="path-3" points="0.310559981 0.198799988 16.891359 0.198799988 16.891359 7.99999952 0.310559981 7.99999952"></polygon>
        <polygon id="path-5" points="0.318399981 0.198799988 16.900799 0.198799988 16.900799 7.99999952 0.318399981 7.99999952"></polygon>
        <polygon id="path-7" points="0 0.316945831 3.1741591 0.316945831 3.1741591 7.47315859 0 7.47315859"></polygon>
    </defs>
    <g id="Page-1" stroke="none" stroke-width="1" fill="none" fill-rule="evenodd">
        <g id="Slide_1-Copy" transform="translate(-246.000000, -353.000000)">
            <g id="Group-13" transform="translate(246.000000, 353.000000)">
                <g id="Group-3" opacity="0.843959263" style="mix-blend-mode: multiply;" transform="translate(1.000000, 0.000000)">
                    <mask id="mask-2" fill="white">
                        <use xlink:href="#path-1"></use>
                    </mask>
                    <g id="Clip-2"></g>
                    <path d="M169.093239,49.2250951 C169.093239,49.2250951 83.9570201,-79.6950134 9.31219769,79.7352935 C9.31219769,79.7352935 -55.0686567,301.19517 154.732254,360.864122 C154.732254,360.864122 325.734443,386.051814 359.755838,263.435862 C359.755838,263.435862 381.015502,174.38374 292.665613,155.593359 C292.665613,155.593359 223.363723,161.312477 201.552296,115.156566" id="Fill-1" fill="#D5FFD5" mask="url(#mask-2)"></path>
                </g>
                <g id="Group-58" transform="translate(0.000000, 182.000000)">
                    <path d="M84.167595,125.480793 C85.0611949,136.232792 86.7675948,149.524791 90.0163946,162.14719" id="Stroke-1" stroke="#491B15" stroke-width="2.60079984" stroke-linecap="round" stroke-linejoin="round"></path>
                    <g id="Group-5" transform="translate(86.399995, 157.532791)">
                        <mask id="mask-4" fill="white">
                            <use xlink:href="#path-3"></use>
                        </mask>
                        <g id="Clip-4"></g>
                        <path d="M0.310559981,4.09959976 C0.310559981,7.97399952 4.02255976,8.00039952 8.60015949,8.00039952 C13.1793592,8.00039952 16.891359,7.97399952 16.891359,4.09959976 C16.891359,1.94599988 13.1793592,0.198799988 8.60015949,0.198799988 C4.02255976,0.198799988 0.310559981,1.94599988 0.310559981,4.09959976" id="Fill-3" fill="#4A1B15" mask="url(#mask-4)"></path>
                    </g>
                    <path d="M60.9043164,124.601913 C61.7787163,135.501112 63.4875162,149.178711 66.824316,162.14751" id="Stroke-6" stroke="#491B15" stroke-width="2.60079984" stroke-linecap="round" stroke-linejoin="round"></path>
                    <g id="Group-10" transform="translate(63.199996, 157.532791)">
                        <mask id="mask-6" fill="white">
                            <use xlink:href="#path-5"></use>
                        </mask>
                        <g id="Clip-9"></g>
                        <path d="M0.318399981,4.09959976 C0.318399981,7.97399952 4.03119976,8.00039952 8.60959949,8.00039952 C13.1887992,8.00039952 16.900799,7.97399952 16.900799,4.09959976 C16.900799,1.94599988 13.1887992,0.198799988 8.60959949,0.198799988 C4.03119976,0.198799988 0.318399981,1.94599988 0.318399981,4.09959976" id="Fill-8" fill="#4A1B15" mask="url(#mask-6)"></path>
                    </g>
                    <path d="M51.8238369,76.9116754 C51.8238369,76.9116754 29.9366382,58.8204765 1.49343991,65.0020761 L2.09583988,57.8404766 L48.7078371,57.7636766 L51.8238369,76.9116754 Z" id="Fill-11" fill="#324A84"></path>
                    <g id="Group-15" transform="translate(0.000000, 57.532797)">
                        <mask id="mask-8" fill="white">
                            <use xlink:href="#path-7"></use>
                        </mask>
                        <g id="Clip-14"></g>
                        <path d="M0.0879199948,3.57727979 C-0.253679985,5.51807967 0.452719973,7.32047956 1.27031992,7.46367956 C2.09031988,7.61007955 2.70471984,6.04127964 3.04791982,4.10047976 C3.3919198,2.16047987 3.00871982,0.470079972 2.19191987,0.326879981 C1.37271992,0.182079989 0.432719974,1.6372799 0.0879199948,3.57727979" id="Fill-13" fill="#324A84" mask="url(#mask-8)"></path>
                    </g>
                    <path d="M25.4910385,127.102632 C25.5198385,72.0530357 48.7638371,63.8602362 48.7638371,63.8602362 C58.4110365,70.2922358 64.2110362,78.7746353 64.2110362,78.7746353 C29.9830382,78.9906353 32.1766381,124.790633 32.3174381,127.211432 C32.3310381,127.269032 32.3390381,127.329032 32.3342381,127.390632 C32.2790381,128.219432 30.6366382,129.122632 28.7582383,128.998632 C26.8790384,128.874632 25.3998385,128.101832 25.4558385,127.273832 C25.4598385,127.215432 25.4726385,127.157832 25.4910385,127.102632" id="Fill-16" fill="#ECC67D"></path>
                    <path d="M56.2660766,40.4264776 C56.2660766,40.4264776 58.4772765,58.5704765 43.6020774,50.528077 L14.2772791,39.5984776 L13.0460792,48.9200771 C13.0460792,48.9200771 47.1708772,58.7704765 61.2924763,80.6808752 C61.2924763,80.6808752 59.7748764,73.8224756 64.5580762,71.1824758 C68.9308759,68.7720759 75.2612755,73.8968756 75.2612755,73.8968756 C71.0420758,65.1528761 75.5644755,60.7800764 80.9900752,60.6296764 C80.9900752,60.6296764 76.9212754,51.8360769 81.7452751,46.6096772 C81.7452751,46.6096772 70.2868758,47.2112772 71.3428757,37.7128778 C71.3428757,37.7128778 65.3132761,46.6096772 56.2660766,40.4264776" id="Fill-18" fill="#7F1919"></path>
                    <path d="M11.4574393,43.8123974 C11.0086393,46.3427972 11.9334393,48.6939971 12.9998392,48.8819971 C14.0654392,49.0707971 14.8702391,47.0267972 15.3190391,44.4955973 C15.7678391,41.9651975 15.2662391,39.7611976 14.1998392,39.5723976 C13.1342392,39.3835977 11.9070393,41.2827975 11.4574393,43.8123974" id="Fill-20" fill="#7F1919"></path>
                    <path d="M38.3746377,105.763994 C36.2442378,127.870392 66.575436,134.477592 82.0554351,132.932792 C106.208234,130.520792 122.692233,96.8951942 119.126633,61.1807964 C115.561833,25.4663985 94.5906344,0.976799942 70.3354358,0.0263999984 C48.5594371,-0.827999951 28.7130383,19.2079989 37.8442377,40.5095976 C41.0394376,47.9671971 45.4810373,50.376797 49.2954371,52.4959969 C57.2874366,56.9359966 64.3882362,69.9855958 50.982637,82.7703951 C45.7058373,87.8007948 40.0442376,88.4503947 38.3746377,105.763994" id="Fill-22" fill="#B12128"></path>
                    <path d="M85.7175949,22.6577586 C87.0591948,23.2177586 89.4743947,24.6409585 91.0671946,25.7673585 C92.4943945,26.7777584 94.7863944,28.8505583 96.4007943,30.9009582 C98.3751941,33.407358 107.892794,49.832957 109.023994,59.7873564 C109.834393,66.896956 111.579193,74.2905556 110.161593,81.3777551 C109.348793,85.4321549 108.105594,89.3569547 106.442394,93.1177544 C104.561594,97.3745542 100.167994,99.4569541 98.5151941,99.4725126 C96.5527942,99.4905541 94.2991944,98.8017541 93.3007944,97.1489542 C91.6127945,94.3577544 91.8815945,90.6777546 92.1671945,87.4417548 C92.5047945,83.559355 93.1815944,79.6977552 93.3743944,75.8025555 C93.7431944,68.3857559 91.8343945,60.5777564 89.6063947,53.5481568 C87.2471948,46.0937573 84.023995,39.0937577 80.3735952,32.1977581 C79.0599953,29.7113582 77.1015954,26.2257584 78.1895953,23.3121586 C78.5159953,22.4385587 78.5711953,22.3001587 79.2967953,21.7057587 C78.5839953,22.2929587 79.9927952,21.5057587 79.2967953,21.7057587 C79.2975953,21.7033587 79.2991953,21.7025587 79.3007953,21.7001587 C79.6207953,21.5921587 79.9415952,21.4937587 80.2703952,21.4265587 C80.0767952,21.4873587 80.9991952,21.4593587 81.4591951,21.4569587 C81.6919951,21.5017587 82.4447951,21.6073587 82.4599951,21.6105587 C83.568795,21.8825587 84.663195,22.2169587 85.7175949,22.6577586" id="Fill-24" fill="#FEFEFE" opacity="0.373000372" style="mix-blend-mode: overlay;"></path>
                    <path d="M49.2957571,52.4952769 C45.4805573,50.376877 41.0389576,47.9672771 37.8429577,40.5096776 C28.7125583,19.2080789 48.5589571,-0.827919951 70.3357558,0.0264799984 C71.7845557,0.0816799951 73.2229556,0.225679987 74.6453556,0.448079973 C54.4693568,1.91527989 37.4237578,20.8296788 46.0117573,40.8648776 C49.2077571,48.3224771 53.6501568,50.731277 57.4613566,52.8512768 C65.4533561,57.2896766 72.5565557,70.3400758 59.1493565,83.124875 C53.8741568,88.1560747 48.2117571,88.8056747 46.5429572,106.118474 C44.8565573,123.619273 63.5101562,131.403272 79.0365553,133.123272 C62.9605562,133.604072 36.3757578,126.508072 38.3749577,105.764074 C40.0445576,88.4496747 45.7061573,87.8008748 50.982157,82.7688751 C64.3877562,69.9856758 57.2853566,56.9344766 49.2957571,52.4952769" id="Fill-26" fill="#C5C5C5" style="mix-blend-mode: multiply;"></path>
                    <path d="M80.6121552,51.4351169 C80.6121552,57.6887166 77.6129554,62.7599163 73.9185556,62.7599163 C70.2233558,62.7599163 67.225756,57.6887166 67.225756,51.4351169 C67.225756,45.1783173 70.0609558,42.0647175 73.7585556,42.0647175 C77.4545554,42.0647175 80.6121552,45.1783173 80.6121552,51.4351169" id="Fill-28" fill="#4A1B15"></path>
                    <path d="M78.5879153,54.1983968 C78.5879153,56.6095966 77.4335154,58.5647965 76.0079155,58.5647965 C74.5815156,58.5647965 73.4271156,56.6095966 73.4271156,54.1983968 C73.4271156,51.7855969 74.5815156,49.831997 76.0079155,49.831997 C77.4335154,49.831997 78.5879153,51.7855969 78.5879153,54.1983968" id="Fill-30" fill="#FEFEFE"></path>
                    <path d="M75.9488755,83.192875 C78.0528753,85.2048749 82.7752751,86.6056748 88.2616747,86.6056748 C93.5632744,86.6056748 98.1496741,85.2976749 100.352074,83.396075" id="Stroke-32" stroke="#4A1B15" stroke-width="1.95039988" stroke-linecap="round" stroke-linejoin="round"></path>
                    <path d="M77.1082354,81.2451952 C76.5722354,82.3923951 75.5242355,84.002795 73.5914356,84.9947949" id="Stroke-34" stroke="#4A1B15" stroke-width="1.95039988" stroke-linecap="round" stroke-linejoin="round"></path>
                    <path d="M99.2285541,81.2451952 C99.7621541,82.3923951 100.811754,84.002795 102.744554,84.9947949" id="Stroke-36" stroke="#4A1B15" stroke-width="1.95039988" stroke-linecap="round" stroke-linejoin="round"></path>
                    <path d="M99.2746341,72.6123957 C99.2746341,74.4635956 101.782634,75.9651955 104.873834,75.9651955 C107.966634,75.9651955 110.472233,74.4635956 110.472233,72.6123957 C110.472233,70.7619958 107.966634,69.2611959 104.873834,69.2611959 C101.782634,69.2611959 99.2746341,70.7619958 99.2746341,72.6123957" id="Fill-38" fill="#F4AEAA"></path>
                    <path d="M65.6831961,72.6123957 C65.6831961,74.4635956 68.1895959,75.9651955 71.2815958,75.9651955 C74.3735956,75.9651955 76.8799954,74.4635956 76.8799954,72.6123957 C76.8799954,70.7619958 74.3735956,69.2611959 71.2815958,69.2611959 C68.1895959,69.2611959 65.6831961,70.7619958 65.6831961,72.6123957" id="Fill-40" fill="#F4AEAA"></path>
                    <line x1="84.225435" y1="42.3069575" x2="71.7438357" y2="37.2701578" id="Stroke-42" stroke="#4A1B15" stroke-width="1.57759991" stroke-linecap="round" stroke-linejoin="round"></line>
                    <path d="M93.3847944,51.2218369 C93.3847944,57.4762366 96.3815943,62.5482363 100.077594,62.5482363 C103.773594,62.5482363 106.771194,57.4762366 106.771194,51.2218369 C106.771194,44.9666373 103.935194,41.8530375 100.235994,41.8530375 C96.5407942,41.8530375 93.3847944,44.9666373 93.3847944,51.2218369" id="Fill-44" fill="#4A1B15"></path>
                    <path d="M95.4066343,53.9858368 C95.4066343,56.3978366 96.5634342,58.3522365 97.9874342,58.3522365 C99.4138341,58.3522365 100.565834,56.3978366 100.565834,53.9858368 C100.565834,51.5746369 99.4138341,49.618637 97.9874342,49.618637 C96.5634342,49.618637 95.4066343,51.5746369 95.4066343,53.9858368" id="Fill-46" fill="#FEFEFE"></path>
                    <line x1="89.7707146" y1="42.0952775" x2="102.252314" y2="37.0584778" id="Stroke-48" stroke="#4A1B15" stroke-width="1.57759991" stroke-linecap="round" stroke-linejoin="round"></line>
                    <path d="M55.5543167,71.1718358 C55.5543167,71.1718358 40.1135176,88.7702347 54.8151167,109.919833" id="Stroke-50" stroke="#4A1B15" stroke-width="2.60079984" stroke-linecap="round" stroke-linejoin="round"></path>
                    <path d="M53.8191968,116.828873 C51.5279969,113.913673 51.2975969,110.274473 53.3023968,108.696874 C55.3103967,107.118474 58.2215965,106.642474 60.9695964,108.325674 C62.4247963,109.216073 62.2647963,112.342473 60.2543964,111.768073 C58.0063965,111.124073 65.3455961,115.987273 61.5991963,119.248873 C59.6719964,120.923273 56.1079967,119.742473 53.8191968,116.828873" id="Fill-52" fill="#4A1B15"></path>
                </g>
                <g id="saly-12" transform="translate(114.000000, 52.000000)" fill-rule="nonzero">
                    <path d="M150.305812,301 L36.6608958,301 C25.3313243,300.990751 14.6414529,295.734068 7.69809095,286.757705 C0.754728972,277.781343 -1.66326271,266.092212 1.14685952,255.087537 L42.6427912,92.5356083 L45.2064607,82.5207715 C46.1922608,78.6873929 49.6372823,76.0064109 53.5855537,76 L133.392252,76 C137.334873,76 140.772718,78.6880075 141.73805,82.5207715 L144.312818,92.5356083 L185.853142,255.087537 C188.66471,266.09789 186.242708,277.793054 179.2917,286.770884 C172.340692,295.748714 161.641231,301 150.305812,301 L150.305812,301 Z" id="Path" fill="#5DA6D3"></path>
                    <path d="M126.230445,81.03314 C109.754555,82.6509753 83.6138485,89.4547483 60.0593445,83.9474597 C56.2915156,83.0609746 52.8135197,86.5404286 51.8548414,90.2636659 C51.8548414,90.2636659 40.0162785,190.53621 14.076226,244.102071 C3.89862911,265.156092 20.062392,291.185511 46.5598156,286.431734 C72.1988877,281.844174 107.357859,279.594718 138.592937,285.379033 C161.701544,289.656324 183.51705,269.377978 175.189926,247.559363 C154.511457,193.461611 138.135893,124.648206 134.446096,87.3604273 C134.055936,83.5374603 130.076306,80.6563838 126.230445,81.03314 Z" id="Path" fill="#A2CCDE"></path>
                    <path d="M63.5724531,61.2511043 C62.4435885,84.1369468 51,121.810394 51,130.929232 C51,140.048069 140.501257,153.582111 141.917872,149.122533 C143.334486,144.662956 125.93669,92.1020631 127.364372,71.0688312 C128.792054,50.0355993 63.9819432,52.9420902 63.5724531,61.2511043 Z" id="Path" fill="#000000" opacity="0.15"></path>
                    <polygon id="Path" fill="#B7D8E8" points="47.2000543 129 45.2760071 137.152967 47.2000543 145.272702 43.5076631 153.84661 43.5076631 159.883793 40.860708 165.400339 40.860708 179.579412 37.4352367 181.938898 37.4352367 192.185494 33.7317239 196.117971 35.3221213 202.155154 27.6815408 211.870035 27.6815408 215.281874 29.7724129 218.084456 24.8455174 224.033021 22.9103486 230.336062 22.9103486 237.514217 17.4496135 241.712552 14.2799403 249.067946 15.1585515 255.692232 12 261.740492 19.7406754 270.303323 19.7406754 276.373739 27.6815408 281.624427 35.4110945 280.572074 39.1034857 286 45.0869388 286 49.1352231 282.322303 57.7989963 283.939603 65.6842534 279.420024 74.6705547 283.895294 82.4112302 280.92655 85.5809033 280.92655 87.8608436 284.89226 94.5338397 283.895294 102.663773 280.572074 108.814051 283.718055 114.274786 281.092711 121.325919 284.260848 127.654143 281.447188 135.80632 283.330346 142.968669 281.790588 145.782449 284.903337 153.712193 283.718055 157.226638 279.420024 162.865319 279.420024 166.379764 275.842024 167.970161 270.303323 176 265.506809 172.541164 257.121216 176 252.213928 167.436322 241.88979 170.316832 233.58174 159.695646 223.86686 158.461142 216.688704 162.164655 213.011007 158.283195 200.061525 149.830734 193.060608 149.485962 181.506879 151.777024 177.474705 148.952123 168.380159 144.025227 166.275453 144.725892 159.972412 146.939102 157.701545 146.939102 153.580752 125.896921 150.877866 80.2981147 143.345234"></polygon>
                    <polygon id="Path" fill="#E5F0F9" points="47 128.83049 54.4152542 125 65.7109723 130.56962 74.1632471 129.083654 80.7087422 135.082554 87.544157 133.761695 94.7363961 141.004403 102.608831 136.821684 111.005352 139.650523 116.725691 145 126.426851 144.823886 130.307315 141.697854 143.019179 146.915245 147 153.255366 139.49554 160.476059 132.080285 155.963126 124.665031 160.476059 114.774309 159.089158 94.4576271 165 83.0057984 157.691249 76.6498662 159.089158 73.8287244 151.780407 65.3541481 151.439185 60.7711864 145 48.7618198 139.958723 49.1186441 134.389103"></polygon>
                    <g id="Group" style="mix-blend-mode: screen;" transform="translate(21.000000, 132.000000)" fill="#EDF1F2">
                        <polygon id="Path" style="mix-blend-mode: multiply;" points="23.8580769 137.806917 22.1738462 145.29594 28.1969231 147.009624 30.6507692 140.611128"></polygon>
                        <polygon id="Path" style="mix-blend-mode: multiply;" points="62.5953846 111.734436 64.0119231 119.935639 70.76 119.178947 70.5703846 111.756692"></polygon>
                        <polygon id="Path" style="mix-blend-mode: multiply;" points="78.3 108.240301 77.8203846 116.15218 84.2338462 116.92 85.6838462 110.009624"></polygon>
                        <polygon id="Path" style="mix-blend-mode: multiply;" points="99.6707692 146.742556 107.088077 144.194286 105.359231 138.073985 98.4996154 139.364812"></polygon>
                        <polygon id="Path" style="mix-blend-mode: multiply;" points="123.562308 137.806917 126.183462 130.763008 120.584231 128.314887 117.360769 134.179248"></polygon>
                        <polygon id="Path" style="mix-blend-mode: multiply;" points="114.616923 119.846617 121.889231 121.193083 123.328077 115.373233 117.081923 113.236692"></polygon>
                        <polygon id="Path" style="mix-blend-mode: multiply;" points="144.988846 105.413835 137.683077 101.40782 134.080385 107.138647 140.003077 111.61203"></polygon>
                        <polygon id="Path" style="mix-blend-mode: multiply;" points="120.361154 91.515188 126.105385 94.8090226 129.05 90.3022556 124.398846 86.6634586"></polygon>
                        <polygon id="Path" style="mix-blend-mode: multiply;" points="126.261538 75.357594 130.131923 68.0466165 124.365385 64.5747368 120.004231 70.5169925"></polygon>
                        <polygon id="Path" style="mix-blend-mode: multiply;" points="100.540769 63.9070677 92.8223077 61.3476692 90.3796154 67.4902256 96.86 70.7395489"></polygon>
                        <polygon id="Path" style="mix-blend-mode: multiply;" points="123.160769 34.0845113 118.643462 29.6 114.773077 33.0496241 118.186154 37.5897744"></polygon>
                        <polygon id="Path" style="mix-blend-mode: multiply;" points="42.4403846 36.7329323 49.0992308 36.6550376 49.3557692 31.2580451 43.4665385 30.4679699"></polygon>
                        <polygon id="Path" style="mix-blend-mode: multiply;" points="111.571923 53.524812 115.832692 59.3891729 120.807308 56.2177444 117.806923 50.4869173"></polygon>
                        <polygon id="Path" style="mix-blend-mode: multiply;" points="85.9180769 56.9633083 81.78 62.5160902 86.1076923 66.1215038 90.48 61.7593985"></polygon>
                        <polygon id="Path" style="mix-blend-mode: multiply;" points="73.8273077 85.7954887 78.3557692 91.2926316 83.0403846 87.876391 79.7611538 82.446015"></polygon>
                        <polygon id="Path" style="mix-blend-mode: multiply;" points="112.096154 100.795789 108.125385 95.4878195 103.608077 98.4589474 106.43 103.655639"></polygon>
                        <polygon id="Path" style="mix-blend-mode: multiply;" points="86.7434615 122.116692 93.7815385 124.108571 95.7334615 118.50015 89.7773077 115.840602"></polygon>
                        <polygon id="Path" style="mix-blend-mode: multiply;" points="40.1984615 133.667368 43.5 139.353684 48.2738462 136.938947 46.0988462 131.508571"></polygon>
                        <polygon id="Path" style="mix-blend-mode: multiply;" points="42.8084615 111.845714 46.3776923 117.142556 50.8503846 114.505263 48.3965385 109.364211"></polygon>
                        <polygon id="Path" style="mix-blend-mode: multiply;" points="70.7042308 99.3936842 76.3592308 102.676391 79.2926923 98.2475188 74.7307692 94.6198496"></polygon>
                        <polygon id="Path" style="mix-blend-mode: multiply;" points="100.206154 72.8204511 96.5142308 78.0839098 100.63 81.3332331 104.578462 77.1603008"></polygon>
                        <polygon id="Path" style="mix-blend-mode: multiply;" points="53.2596154 49.2628571 49.7796154 56.5960902 55.5907692 59.756391 59.6061538 53.7251128"></polygon>
                        <polygon id="Path" style="mix-blend-mode: multiply;" points="89.4538462 40.1157895 83.375 42.8866165 85.3492308 47.9497744 91.0711538 46.2806015"></polygon>
                        <polygon id="Path" style="mix-blend-mode: multiply;" points="76.1361538 29.0213534 75.4669231 22.3335338 69.9903846 22.567218 69.7226923 28.553985"></polygon>
                        <polygon id="Path" style="mix-blend-mode: multiply;" points="101.700769 32.5154887 101.377308 40.327218 107.712692 40.9503759 109.006538 34.0956391"></polygon>
                        <polygon id="Path" style="mix-blend-mode: multiply;" points="65.105 38.046015 58.7919231 39.1921805 59.4388462 44.3554887 65.1496154 44.155188"></polygon>
                        <polygon id="Path" style="mix-blend-mode: multiply;" points="66.8003846 52.6345865 65.7407692 59.4781955 71.2507692 60.6577444 73.08 54.7488722"></polygon>
                        <polygon id="Path" style="mix-blend-mode: multiply;" points="76.3146154 65.487218 72.065 70.6839098 76.0915385 74.3783459 80.5196154 70.3389474"></polygon>
                        <polygon id="Path" style="mix-blend-mode: multiply;" points="93.3465385 89.8015038 90.8815385 96.077594 95.8673077 98.3810526 98.8676923 93.1621053"></polygon>
                        <polygon id="Path" style="mix-blend-mode: multiply;" points="33.8407692 90.7584962 33.2607692 82.9801504 26.9142308 83.0914286 26.4123077 90.0240602"></polygon>
                        <polygon id="Path" style="mix-blend-mode: multiply;" points="58.5019231 134.813534 63.5769231 139.086617 67.3023077 135.180752 63.3761538 130.75188"></polygon>
                        <polygon id="Path" style="mix-blend-mode: multiply;" points="19.5973077 101.40782 12.8492308 104.267669 14.8680769 109.864962 21.1923077 108.218045"></polygon>
                        <polygon id="Path" style="mix-blend-mode: multiply;" points="0.847692308 130.34015 7.60692308 130.395789 7.975 124.920902 2.01884615 123.997293"></polygon>
                        <polygon id="Path" style="mix-blend-mode: multiply;" points="20.3557692 65.5206015 15.4926923 61.5479699 12.0238462 65.2980451 15.805 69.437594"></polygon>
                        <polygon id="Path" style="mix-blend-mode: multiply;" points="52.5680769 89.8126316 47.0580769 93.7184962 49.9803846 98.3699248 55.3565385 95.6324812"></polygon>
                        <polygon id="Path" style="mix-blend-mode: multiply;" points="54.4976923 80.3428571 52.1330769 72.8204511 45.8980769 74.3783459 47.0134615 81.3221053"></polygon>
                        <polygon id="Path" style="mix-blend-mode: multiply;" points="35.1903846 56.9966917 29.5242308 62.4938346 33.7180769 67.3455639 39.44 63.2282707"></polygon>
                        <polygon id="Path" style="mix-blend-mode: multiply;" points="28.565 33.5948872 32.5134615 27.9085714 28.0630769 24.4366917 23.8469231 28.9545865"></polygon>
                        <polygon id="Path" style="mix-blend-mode: multiply;" points="35.8930769 9.34736842 41.0684615 4.47338346 37.3430769 0.0556390977 32.1453846 3.68330827"></polygon>
                    </g>
                    <path d="M145,93 L43,93 L45.57199,82.7039031 C46.5609895,78.7628666 50.0171919,76.0065909 53.9782775,76 L134.043991,76 C137.999408,76.0019914 141.448411,78.7634985 142.416876,82.7039031 L145,93 Z" id="Path" fill="#A6CAE2" style="mix-blend-mode: multiply;"></path>
                    <path d="M59.0270008,88.2456317 C58.2399419,82.0193365 74.8901184,82.2290876 78.8475838,82.0303761 C82.8050492,81.8316645 97.8921933,82.4940363 98.9785563,87.461825 C100.064919,92.4296137 59.5147556,91.6678861 59.0270008,88.2456317 Z" id="Path" fill="#B8D1A1" opacity="0.8" style="mix-blend-mode: screen;"></path>
                    <path d="M135.331527,98 C113.798459,98 161.222215,212.668222 108.720115,252.659986 C83.0844535,272.200659 37.6122017,265.983172 37.0023568,276.464079 C36.3925119,286.944985 154.325423,301.544977 169.416312,274.865296 C173.785019,267.093438 168.928436,220.784263 157.152886,177.928014 C145.8763,136.714958 137.615674,98 135.331527,98 Z" id="Path" fill="#8DB9E5" opacity="0.5" style="mix-blend-mode: multiply;"></path>
                    <path d="M23.1093352,282.829717 C-1.43523235,271.288167 6.98257964,248.038282 26.6093729,184.08164 C40.077872,140.228198 46.546296,88.6803902 52.5606011,90.0257925 C71.1019396,94.1175943 37.4528438,289.567847 23.1093352,282.829717 Z" id="Path" fill="#A1CED1" opacity="0.5" style="mix-blend-mode: screen;"></path>
                    <path d="M76.9832092,86.0099729 C77.7195105,82.5400256 54.0239964,73.0087922 48.401332,88.9127172 C39.6661213,113.580483 29.3467472,168.677018 24.8843151,186.705174 C20.4218831,204.733329 7.45851802,249.698063 7.03458698,259.485093 C6.27597353,277.346424 18.1014184,290.114051 32.1915476,292.727633 C46.2816768,295.341215 14.3418194,278.792236 17.6886435,258.250593 C21.0354675,237.70895 31.0759396,193.745163 33.0394097,183.19074 C35.0028798,172.636317 46.6498274,108.542387 50.3090217,96.6867337 C53.968216,84.8310805 75.566387,92.6718268 76.9832092,86.0099729 Z" id="Path" fill="#A1CED1" opacity="0.8" style="mix-blend-mode: screen;"></path>
                    <path d="M112.1377,84.5401128 C110.262078,87.9865739 128.080488,89.4096287 133.149133,96.3581389 C137.023186,101.683477 143.319917,145.275651 149.259387,166.73265 C155.198857,188.189649 169.355337,253.450057 169.076227,263.455912 C168.484513,283.901208 130.157069,287.681198 134.589343,289.58231 C154.238717,298.020581 185.376276,283.434268 180.486261,260.365214 C178.253378,249.65895 158.905443,179.017616 154.729951,164.920479 C150.554459,150.823341 148.299247,97.2697835 135.839758,84.7179947 C131.273511,80.1375368 113.410444,82.2387662 112.1377,84.5401128 Z" id="Path" fill="#A1CED1" opacity="0.8" style="mix-blend-mode: screen;"></path>
                    <path d="M120.504454,101.083899 C126.050731,97.4953263 141.735244,210.18093 144.497155,217.490985 C147.259066,224.80104 156.723665,267.199359 154.725209,270.344897 C149.526977,278.529944 132.349236,207.94361 129.654688,174.261979 C126.960141,140.580347 114.800995,104.772154 120.504454,101.083899 Z" id="Path" fill="#A1CED1" opacity="0.8" style="mix-blend-mode: screen;"></path>
                    <path d="M100.292545,100.059436 C106.085312,96.9277105 110.739617,218.565262 112.860283,226.083625 C114.980949,233.601987 119.188798,281.088719 111.866918,281 C97.9486503,280.8444 101.620751,215.566802 101.743527,181.684197 C101.866302,147.801592 94.3435176,103.29111 100.292545,100.059436 Z" id="Path" fill="#A1CED1" opacity="0.8" style="mix-blend-mode: screen;"></path>
                    <path d="M77.4427477,101.030306 C83.7415725,98.8036835 68.8369925,219.987636 69.7529795,227.75855 C70.6689666,235.529464 67.2424964,283.201461 59.9259082,281.976819 C46.027783,279.638865 60.1973117,215.578923 65.7610852,182.057115 C71.3248586,148.535307 70.9629872,103.323728 77.4427477,101.030306 Z" id="Path" fill="#A1CED1" opacity="0.8" style="mix-blend-mode: screen;"></path>
                    <path d="M56.8832513,96.0106339 C42.7235399,94.8999191 30.1247415,181.158031 41.2741206,186.81157 C51.1413211,191.776465 69.1141202,96.9880629 56.8832513,96.0106339 Z" id="Path" fill="#A1CED1" opacity="0.8" style="mix-blend-mode: screen;"></path>
                    <path d="M40.1827728,200.01302 C26.1842525,198.902997 11.8881258,269.123055 22.9326277,274.773073 C32.6323898,279.757076 52.2744081,201.000941 40.1827728,200.01302 Z" id="Path" fill="#A1CED1" opacity="0.8" style="mix-blend-mode: screen;"></path>
                    <path d="M116.422923,101.159931 C102.254092,104.893506 135.675733,256.075597 151.01609,250.868534 C165.317547,246.004915 138.151411,95.4210829 116.422923,101.159931 Z" id="Path" fill="#A1CED1" opacity="0.4" style="mix-blend-mode: screen;"></path>
                    <path d="M72.9938325,103.175675 C53.6200319,106.291904 17.4725695,248.425319 27.8288673,271.69687 C33.7040747,284.918583 93.6511059,286.554603 113.224066,269.882779 C126.534564,258.541933 111.675047,96.9432176 72.9938325,103.175675 Z" id="Path" fill="#A1CED1" opacity="0.4" style="mix-blend-mode: screen;"></path>
                    <path d="M144,48.7587045 L144,67.3916621 C144,72.1459158 140.127556,76 135.350654,76 L54.6493641,76 C49.8724621,76 46,72.1459158 46,67.3916621 L46,48.7587045 C45.9969154,45.1410556 46.3958619,41.5341632 47.189581,38.0038144 C52.2495966,15.7779355 72.0966081,0 94.9944503,0 C117.892292,0 137.739304,15.7779355 142.79932,38.0038144 C143.596778,41.5337478 144,45.1406451 144,48.7587045 Z" id="Path" fill="#62928B"></path>
                    <path d="M116.433323,76 L64.5555546,76 C61.4873065,76 59,73.5249461 59,70.471826 L59,31.3877141 C59,14.0735078 77.3999967,2 94.8111048,2 C107.033325,2 122,14.0735078 122,31.3877141 L122,70.4607697 C122.002946,71.9307622 121.41741,73.3413948 120.372816,74.3808386 C119.328222,75.4202823 117.910599,76.0029318 116.433323,76 L116.433323,76 Z" id="Path" fill="#B5E7E0" opacity="0.5" style="mix-blend-mode: screen;"></path>
                    <path d="M143,38 L47,38 C52.0806696,15.7763518 72.008693,0 95,0 C117.991307,0 137.91933,15.7763518 143,38 L143,38 Z" id="Path" fill="#B5E7E0" opacity="0.5" style="mix-blend-mode: screen;"></path>
                    <path d="M132.842455,26.1711452 C125.218379,34.9987525 61.2925716,36.5435838 59.0199028,23.1256206 C58.6056726,20.6759596 64.4608735,1.16694737 95.1251093,2.02763908 C124.613827,2.8883308 134.398618,24.3394166 132.842455,26.1711452 Z" id="Path" fill="#B5E7E0" opacity="0.5" style="mix-blend-mode: screen;"></path>
                    <path d="M144,67 L144,67.6840855 C144,72.2768383 140.127555,76 135.350652,76 L54.6493477,76 C49.8724449,76 46,72.2768383 46,67.6840855 L46,67 L144,67 Z" id="Path" fill="#C3C1B8" opacity="0.6" style="mix-blend-mode: multiply;"></path>
                    <path d="M73.9893057,14.6770457 C74.1839256,15.9845805 71.699659,17.41298 68.3796712,17.8634752 C65.0596835,18.3139704 62.2434181,17.6107583 62.0144534,16.3251989 C61.7854888,15.0396394 64.3041001,13.5892646 67.6355361,13.1387694 C70.966972,12.6882742 73.7946857,13.3695108 73.9893057,14.6770457 Z" id="Path" fill="#699790" opacity="0.5" style="mix-blend-mode: multiply;"></path>
                    <path d="M101,14.4767442 C101,15.872093 97.8616852,17 94,17 C90.1383148,17 87,15.8372093 87,14.4767442 C87,13.1162791 90.1494436,12 94.0111288,12 C97.872814,12 101,13.0813953 101,14.4767442 Z" id="Path" fill="#699790" opacity="0.5" style="mix-blend-mode: multiply;"></path>
                    <path d="M125.990906,16.2569147 C125.818057,17.5718467 123.214519,18.3011368 120.18966,17.8812425 C117.164802,17.4613483 114.788128,16.0580174 115.014992,14.7430853 C115.241856,13.4281533 117.780577,12.6988632 120.816238,13.1187575 C123.851899,13.5386517 126.163755,14.9419826 125.990906,16.2569147 Z" id="Path" fill="#699790" opacity="0.5" style="mix-blend-mode: multiply;"></path>
                    <path d="M89,25.4739087 C89,26.8563464 85.4457143,27.9789273 81,27.9997159 C76.5542857,28.0205044 73,26.8979234 73,25.5154858 C73,24.1330482 76.5428571,23.0104672 80.9428571,23.0000729 C85.3428571,22.9896787 89,24.0914711 89,25.4739087 Z" id="Path" fill="#699790" opacity="0.5" style="mix-blend-mode: multiply;"></path>
                    <path d="M113.999005,24.2103791 C114.063611,25.5685233 110.973281,26.8171397 107.107677,26.9814314 C103.242073,27.145723 100.065601,26.2037843 100.000995,24.7908762 C99.9363886,23.3779681 103.026719,22.1950683 106.892323,22.0198239 C110.757927,21.8445795 113.945167,22.8522349 113.999005,24.2103791 Z" id="Path" fill="#699790" opacity="0.5" style="mix-blend-mode: multiply;"></path>
                    <path d="M113.992305,7.41382621 C113.812728,8.69637929 110.535435,9.33226695 106.674515,8.82571237 C102.813596,8.31915779 99.828117,6.88571612 100.007695,5.59238528 C100.187272,4.29905445 103.464565,3.67394454 107.325485,4.16972136 C111.186404,4.66549818 114.171883,6.17438416 113.992305,7.41382621 Z" id="Path" fill="#699790" opacity="0.5" style="mix-blend-mode: multiply;"></path>
                    <path d="M87.9913039,6.49922987 C88.182231,7.79512499 85.2060133,9.31970748 81.3537767,9.82064173 C77.5015401,10.321576 74.199623,9.74441261 74.0086958,8.44851749 C73.8177686,7.15262237 76.7939864,5.67159937 80.657454,5.181555 C84.5209216,4.69151063 87.7666837,5.21422462 87.9913039,6.49922987 Z" id="Path" fill="#699790" opacity="0.5" style="mix-blend-mode: multiply;"></path>
                    <path d="M72.9928202,15.0209763 C73.124091,15.8116553 71.439449,16.6785444 69.2406629,16.926227 C67.0418768,17.1739096 65.1384501,16.7833332 65.0071793,15.9736017 C64.8759084,15.1638701 66.5605505,14.3065073 68.7702758,14.0683509 C70.9800011,13.8301946 72.8615494,14.2302972 72.9928202,15.0209763 Z" id="Path" fill="#699790" opacity="0.5" style="mix-blend-mode: multiply;"></path>
                    <path d="M100,14.5 C100,15.3289474 97.7298524,16 94.9943246,16 C92.2587968,16 90,15.3289474 90,14.5 C90,13.6710526 92.2701476,13 94.9943246,13 C97.7185017,13 100,13.6710526 100,14.5 Z" id="Path" fill="#699790" opacity="0.5" style="mix-blend-mode: multiply;"></path>
                    <path d="M124.993576,16.6309637 C124.870005,17.6762506 122.971502,18.2555662 120.769689,17.8903455 C118.567875,17.5251248 116.882813,16.4420565 117.006385,15.371582 C117.129956,14.3011075 119.017225,13.7469795 121.230272,14.1122002 C123.44332,14.4774209 125.117147,15.5856769 124.993576,16.6309637 Z" id="Path" fill="#699790" opacity="0.5" style="mix-blend-mode: multiply;"></path>
                    <path d="M87,24.9578998 C87,26.0749838 84.5379877,26.9878696 81.5112936,26.9998813 C78.4845996,27.0118929 76,26.1110188 76,24.9939348 C76,23.8768508 78.4507187,23 81.4887064,23 C84.526694,23 87,23.8408159 87,24.9578998 Z" id="Path" fill="#699790" opacity="0.5" style="mix-blend-mode: multiply;"></path>
                    <path d="M113,23.747286 C113,24.8465918 110.80475,25.844812 108.071663,25.9838047 C105.338576,26.1227974 103.04454,25.3520198 103.000635,24.252714 C102.95673,23.1534082 105.195885,22.155188 107.928972,22.0161953 C110.662058,21.8772026 112.956095,22.6479802 113,23.747286 Z" id="Path" fill="#699790" opacity="0.5" style="mix-blend-mode: multiply;"></path>
                    <path d="M112.994693,7.72945578 C112.868824,8.75456513 110.523092,9.26094445 107.765427,8.86572157 C105.007761,8.47049869 102.879438,7.30953147 103.005307,6.2720714 C103.131176,5.23461133 105.476908,4.74058273 108.234573,5.13580561 C110.992239,5.53102849 113.120562,6.71669714 112.994693,7.72945578 Z" id="Path" fill="#699790" opacity="0.5" style="mix-blend-mode: multiply;"></path>
                    <path d="M86.9936667,6.23517899 C87.1312781,7.24876814 85.0097691,8.40890031 82.2460736,8.83631743 C79.482378,9.26373454 77.1315167,8.83631743 77.0053729,7.76166868 C76.8792291,6.68701994 78.9892705,5.57573544 81.7529661,5.14831833 C84.5166616,4.72090121 86.8560553,5.25822558 86.9936667,6.23517899 Z" id="Path" fill="#699790" opacity="0.5" style="mix-blend-mode: multiply;"></path>
                    <path d="M53,41.4893275 C53,51.8608666 102.977501,47.8998213 103,42.9236893 C103.056082,33.2913981 53.0112259,34.5712902 53,41.4893275 Z" id="Path" fill="#C2D0A2" opacity="0.4" style="mix-blend-mode: screen;"></path>
                    <path d="M53,66.7353234 C53,77.0679815 110.966422,72.6051526 111,67.6476751 C111.04471,58.0514938 53.011184,59.8322284 53,66.7353234 Z" id="Path" fill="#C2D0A2" opacity="0.4" style="mix-blend-mode: screen;"></path>
                </g>
                <g id="Group-5" transform="translate(118.000000, 200.000000)">
                    <path d="M22.7049905,11.9418203 C22.7049905,11.9418203 11.4145902,51.8443211 0.124190003,48.7929211" id="Stroke-1" stroke="#4A1B14" stroke-width="2.44860005" stroke-linecap="round" stroke-linejoin="round"></path>
                    <path d="M21.5394305,2.99904007 C19.3845304,5.74244012 19.1667304,9.1689402 21.0554305,10.6539402 C22.9441305,12.1400403 25.6853306,12.5888403 28.2703306,11.0026402 C29.6409306,10.1644402 29.4880306,7.22304016 27.5982306,7.76424017 C25.4807306,8.37034018 32.3898307,3.79104008 28.8632306,0.723140016 C27.0504306,-0.853160018 23.6943305,0.256740006 21.5394305,2.99904007" id="Fill-3" fill="#4A1B14"></path>
                </g>
            </g>
        </g>
    </g>
</svg>