<?xml version="1.0" encoding="UTF-8"?>
<svg width="152px" height="153px" viewBox="0 0 152 153" version="1.1" xmlns="http://www.w3.org/2000/svg" xmlns:xlink="http://www.w3.org/1999/xlink">
    <!-- Generator: Sketch 61.1 (89650) - https://sketch.com -->
    <title>Group 92</title>
    <desc>Created with Sketch.</desc>
    <defs>
        <polygon id="path-1" points="0 0.238775734 12.7021471 0.238775734 12.7021471 11.7399163 0 11.7399163"></polygon>
    </defs>
    <g id="Page-1" stroke="none" stroke-width="1" fill="none" fill-rule="evenodd">
        <g id="Slide_1-Copy" transform="translate(-246.000000, -71.000000)">
            <g id="Group-9" transform="translate(246.000000, 71.000000)">
                <g id="Group-92">
                    <path d="M128.218067,89.7608282 C128.218067,89.7608282 146.07014,71.8252046 119.036895,63.2455849 C119.036895,63.2455849 82.5694173,58.0476637 79,95.4788804 C79,95.4788804 79.7641628,125.373281 99.9108016,127.973512 C99.9108016,127.973512 114.447347,129.272569 114.958035,113.67584 C114.958035,113.67584 112.153196,101.9784 118.783005,97.0392733" id="Fill-1" fill="#8F0863"></path>
                    <path d="M23.7817769,89.7608282 C23.7817769,89.7608282 5.93006323,71.8252046 32.9629788,63.2455849 C32.9629788,63.2455849 69.4289093,58.0476637 73,95.4788804 C73,95.4788804 72.2358348,125.373281 52.0895478,127.973512 C52.0895478,127.973512 37.5525409,129.272569 37.0422664,113.67584 C37.0422664,113.67584 39.8471142,101.9784 33.2168695,97.0392733" id="Fill-3" fill="#8F0863"></path>
                    <path d="M59.0002134,66 C67.2837859,66 74,59.5076597 74,51.5002063 C74,43.4927528 67.2837859,37 59.0002134,37 C50.7166408,37 44,43.4927528 44,51.5002063 C44,59.5076597 50.7166408,66 59.0002134,66" id="Fill-5" fill="#319B32"></path>
                    <path d="M59.0002134,66 C67.2837859,66 74,59.5076597 74,51.5002063 C74,43.4927528 67.2837859,37 59.0002134,37 C50.7166408,37 44,43.4927528 44,51.5002063 C44,59.5076597 50.7166408,66 59.0002134,66 Z" id="Stroke-7" stroke="#339C31" stroke-width="0.919"></path>
                    <path d="M77,47 C85.2836904,47 92,40.5076597 92,32.5002063 C92,24.4927528 85.2836904,18 77,18 C68.7163096,18 62,24.4927528 62,32.5002063 C62,40.5076597 68.7163096,47 77,47" id="Fill-9" fill="#319B32"></path>
                    <path d="M77,47 C85.2836904,47 92,40.5076597 92,32.5002063 C92,24.4927528 85.2836904,18 77,18 C68.7163096,18 62,24.4927528 62,32.5002063 C62,40.5076597 68.7163096,47 77,47 Z" id="Stroke-11" stroke="#339C31" stroke-width="0.919"></path>
                    <path d="M93,66 C101.28369,66 108,59.5076597 108,51.5002063 C108,43.4927528 101.28369,37 93,37 C84.7163096,37 78,43.4927528 78,51.5002063 C78,59.5076597 84.7163096,66 93,66" id="Fill-13" fill="#319B32"></path>
                    <path d="M93,66 C101.28369,66 108,59.5076597 108,51.5002063 C108,43.4927528 101.28369,37 93,37 C84.7163096,37 78,43.4927528 78,51.5002063 C78,59.5076597 84.7163096,66 93,66 Z" id="Stroke-15" stroke="#339C31" stroke-width="0.919"></path>
                    <path d="M70,59.7411996 L71.4189802,61.5585158 L76.3834849,57.4041666 C76.3834849,57.4041666 75.9081805,74.8057939 74.2542443,80 L80.6373441,80 C80.6373441,80 77.3267755,60.7806334 78.2731475,57.1430385 C78.2731475,57.1430385 78.5104145,58.4436004 82.5270066,59.4804947 L83,43.117878 L77.3267755,40 L70.9459868,44.1568885" id="Fill-17" fill="#319B32"></path>
                    <path d="M70,59.7411996 L71.4189802,61.5585158 L76.3834849,57.4041666 C76.3834849,57.4041666 75.9081805,74.8057939 74.2542443,80 L80.6373441,80 C80.6373441,80 77.3267755,60.7806334 78.2731475,57.1430385 C78.2731475,57.1430385 78.5104145,58.4436004 82.5270066,59.4804947 L83,43.117878 L77.3267755,40 L70.9459868,44.1568885 L70,59.7411996 Z" id="Stroke-19" stroke="#339C31" stroke-width="0.919"></path>
                    <polyline id="Fill-21" fill="#000000" points="6.13918158 103 5 100.101649 16.8612273 96 18 98.8983506"></polyline>
                    <path d="M7.79359111,92.8434446 L7.25613149,90.2681494 C7.06316776,89.3446436 6.47200055,88.9530304 5.59426493,89.1424075 C4.73302522,89.3282777 4.48827202,90.1056591 4.66665797,90.9637012 L5.17726379,93.4084587 L7.79359111,92.8434446 Z M3.39685689,97 L2.14163357,90.9909778 C1.7077529,88.9109466 2.20569907,86.6641388 4.5461995,86.1603021 C5.79758656,85.890654 7.11112097,86.2444698 7.84154432,87.3803429 L7.87453613,87.3741083 C7.90369168,86.0570409 9.21070447,85.39539 10.2940635,85.0598885 C10.7751301,84.9211678 12.4703721,84.5038367 12.80873,84 L13.4417124,87.0370481 C13.1075744,87.3850189 11.9808657,87.6799952 11.6613055,87.7832564 C10.5096611,88.1183682 9.34765884,88.5754451 9.6484214,90.0109706 L10.1340915,92.3399976 L14.3585778,91.4293508 L15,94.4979618 L3.39685689,97 Z" id="Fill-23" fill="#000000"></path>
                    <polyline id="Fill-25" fill="#000000" points="0.221588556 82 0 78.811347 12.7779973 78 13 81.1890498"></polyline>
                    <g id="Group-29" transform="translate(0.000000, 66.000000)">
                        <mask id="mask-2" fill="white">
                            <use xlink:href="#path-1"></use>
                        </mask>
                        <g id="Clip-28"></g>
                        <path d="M8.19516061,8.28304286 C9.6291,8.31561429 10.1491,7.38604286 10.2404939,5.92332857 C10.3047061,4.8849 10.0321,3.78604286 9.12840303,3.71875714 C8.05649394,3.64032857 7.73503939,5.51532857 7.12364545,7.38604286 C6.51225152,9.23832857 5.60422121,11.1621857 3.37570606,10.9971857 C0.720554545,10.8026143 -0.137839394,7.81932857 0.0173727273,5.33661429 C0.179281818,2.70818571 1.51985758,0.147042857 4.2620697,0.330042857 L4.04658485,3.77447143 C2.9451303,3.63775714 2.51691818,4.74132857 2.45073636,5.79561429 C2.40385758,6.53747143 2.5850697,7.48118571 3.38397879,7.53904286 C4.32155455,7.60847143 4.6091303,5.71247143 5.22288788,3.82332857 C5.83664545,1.95261429 6.77185758,0.0866142857 8.96846364,0.248614286 C12.0498576,0.475757143 12.859403,3.39904286 12.6781909,6.30561429 C12.4906758,9.34461429 11.0973121,11.9387571 7.9800697,11.7279" id="Fill-27" fill="#000000" mask="url(#mask-2)"></path>
                    </g>
                    <polyline id="Fill-30" fill="#000000" points="2 61.9226106 2.90819628 58.9324876 7.63664537 60.0511888 8.83191518 56.113053 4.10085633 54.9924296 5.00861764 52 18 55.0773894 17.0918037 58.0675124 11.7444067 56.8011888 10.5491369 60.7416312 15.8991437 62.0079548 14.9909474 65"></polyline>
                    <polyline id="Fill-32" fill="#000000" points="9 41.7302966 10.8218223 38.6682636 15.1549329 41.4595259 13.1196124 34.801961 15.382607 31 17.2435206 38.2067022 27 37.7259278 24.7417307 41.527442 18.1151258 41.6337843 18.6353396 43.6976294 22.1161758 45.937967 20.2965014 49"></polyline>
                    <polyline id="Fill-34" fill="#000000" points="16 29.3656244 18.1553499 27 28 34.6343756 25.8446501 37"></polyline>
                    <path d="M30.1018343,28.6535101 L31.2873516,27.6103525 C33.1507226,25.9014903 33.2495157,24.5011152 31.5476175,22.58453 C29.9984751,20.8426303 28.3057091,20.8269375 26.5950939,22.3322065 L25.4116521,23.3732992 L30.1018343,28.6535101 Z M21,23.4335925 L25.1356125,19.7969949 C28.0857076,17.201903 31.4334658,17.4319263 34.0643513,20.3937339 C36.8508982,23.5294012 36.5590849,26.7930885 33.6380466,29.3638153 L29.5024341,33 L21,23.4335925 Z" id="Fill-36" fill="#000000"></path>
                    <polyline id="Fill-38" fill="#000000" points="34 12.9368248 36.9856081 11.0954615 44.7890061 16.1385514 44.8201798 16.1187904 40.8947888 8.68597021 43.6310074 7 50 19.0609297 47.0143919 20.9018439 39.1661038 15.7738716 39.1370084 15.7936326 43.1047956 23.3117842 40.3689926 25"></polyline>
                    <polyline id="Fill-40" fill="#000000" points="49 5.35374754 58.0577072 2 58.8474051 4.63844227 52.7498064 6.89682476 53.4136328 9.11082384 58.9837335 7.0459185 59.7482572 9.59559398 54.17622 11.6604993 54.8969791 14.0684065 61.1518203 11.7514206 62 14.5854946 52.7831139 18"></polyline>
                    <polyline id="Fill-42" fill="#000000" points="68.3249959 8.11233487 68.9864709 12.5790677 65.5594126 13 64.9005115 8.53326713 59 1.59962084 62.8864874 1.12118203 66.2204587 5.67045831 68.1160865 0.478047606 72 0"></polyline>
                    <path d="M83.6859805,9.51538761 L86.599181,9.89481885 L85.8077965,5.53097 L85.7721674,5.52707441 L83.6859805,9.51538761 Z M84.5997614,2 L87.9979364,2.44215037 L91,15 L87.5108661,14.546942 L87.0439157,12.3030775 L82.5659702,11.7218543 L81.4346424,13.7549669 L78,13.3081418 L84.5997614,2 Z" id="Fill-44" fill="#000000"></path>
                    <path d="M95.6735722,10.6682453 C95.2232062,12.0599375 95.9995009,12.7887866 97.4342955,13.2297542 C98.4501656,13.5418909 99.6285571,13.5395052 99.9562571,12.6750655 C100.349497,11.6491895 98.571946,10.8853493 96.8811911,9.83839906 C95.2090353,8.79701563 93.5541503,7.45105042 94.3658721,5.31539926 C95.3334728,2.77337397 98.5644177,2.65289318 100.99604,3.40122598 C103.573357,4.19250243 105.740605,6.11542349 104.758834,8.7437337 L101.383966,7.70672416 C101.841418,6.66375023 100.864518,5.98221866 99.8296055,5.66371995 C99.1037942,5.44224207 98.1096233,5.39055064 97.8173503,6.156379 C97.4745938,7.05302644 99.2831436,7.79062333 100.991169,8.84234504 C102.67971,9.88969286 104.269941,11.2511655 103.469733,13.3546089 C102.346696,16.3030084 99.1897048,16.3912814 96.3422574,15.5157082 C93.3646157,14.6019628 91.1805394,12.6190002 92.2964908,9.63163335" id="Fill-46" fill="#000000"></path>
                    <path d="M106.598822,16.1228342 C105.908342,17.4056511 106.491816,18.2448107 107.747655,18.9091125 C108.638243,19.3803997 109.736522,19.5706513 110.212569,18.7808308 C110.777928,17.8433877 109.264687,16.8080558 107.89089,15.5102398 C106.530574,14.2226863 105.24314,12.6387035 106.418935,10.6872429 C107.818009,8.36672583 110.857551,8.77880609 112.987968,9.90610612 C115.241821,11.0993232 116.89577,13.3282669 115.467207,15.7320684 L112.511921,14.1670318 C113.143,13.2256416 112.361523,12.401481 111.457033,11.9211154 C110.820899,11.5860042 109.900822,11.3748328 109.481647,12.0730799 C108.987063,12.8905303 110.534007,13.906916 111.924234,15.2110474 C113.300137,16.5092581 114.521852,18.0975828 113.364172,20.0170716 C111.741819,22.7109871 108.775159,22.2799606 106.279912,20.9604354 C103.675553,19.5813086 102.019077,17.2903949 103.645642,14.5601659" id="Fill-48" fill="#000000"></path>
                    <path d="M119.06124,27.3000771 C120.656943,28.6695636 122.489949,27.7951402 123.70938,26.3950146 C124.929217,24.995292 125.537916,23.0698673 123.940588,21.7003807 C122.342447,20.3312973 120.511879,21.2057207 119.289604,22.6054432 C118.070173,24.0055689 117.463505,25.9309936 119.06124,27.3000771 M125.782128,19.5874931 C128.775239,22.1563387 128.566786,25.7846517 126.186437,28.5187871 C123.804057,31.2513099 120.21525,31.9818103 117.2197,29.4129647 C114.224151,26.8445222 114.432604,23.2162092 116.81539,20.4816707 C119.197364,17.7471321 122.786578,17.0190507 125.782128,19.5874931" id="Fill-50" fill="#000000"></path>
                    <path d="M133.389302,35.4084986 C134.286185,34.4945744 134.224859,33.2952796 133.404634,32.1906983 C132.138589,30.4920049 130.176986,30.977463 128.701951,32.1127954 C127.224496,33.2481278 126.231591,35.0337446 127.497232,36.7344881 C128.413884,37.9653541 129.637969,38.1363305 130.853582,37.3577114 L132.815184,39.9924698 C130.146727,41.8199081 127.21804,41.0654799 125.310904,38.5045242 C123.034606,35.44622 123.857252,31.6962198 126.740349,29.478447 C129.622638,27.2631342 133.397775,27.4759322 135.674073,30.5338264 C137.29758,32.7138779 137.69458,36.1293055 135.348484,38.0407969" id="Fill-52" fill="#000000"></path>
                    <polyline id="Fill-54" fill="#000000" points="141.378826 38 143 41.2254974 131.621594 48 130 44.7722212"></polyline>
                    <path d="M139.282637,50.2356087 L140.313373,53.1430956 L144.048012,50.0394441 L144.034636,50.0031337 L139.282637,50.2356087 Z M146.797475,47 L148,50.3914776 L137.602781,60 L136.365982,56.5155324 L138.256082,54.8629675 L136.671525,50.3936917 L134.216318,50.4486 L133,47.0212549 L146.797475,47 Z" id="Fill-56" fill="#000000"></path>
                    <polyline id="Fill-58" fill="#000000" points="149.34524 69 148.729193 65.0061532 139.536319 66.81079 139 63.3232612 148.194818 61.5164268 147.580716 57.5230194 150.235086 57 152 68.4791781"></polyline>
                    <polyline id="Fill-60" fill="#000000" points="151.867122 71 152 74.4723331 139.133295 75 139 71.5272355"></polyline>
                    <path d="M141.821482,84.0741098 C141.594928,86.2720839 143.345683,87.3280986 145.18593,87.5399822 C147.023759,87.7539933 148.949468,87.1234479 149.178038,84.9254738 C149.407011,82.7279252 147.654241,81.6740378 145.816009,81.4600268 C143.97818,81.2460158 142.050455,81.8765612 141.821482,84.0741098 M151.953929,85.247554 C151.526218,89.3669472 148.42138,91.3623979 144.830378,90.9458635 C141.239376,90.5293291 138.618686,87.8735501 139.045591,83.7520296 C139.473302,79.6326364 142.578141,77.6376112 146.171158,78.0541456 C149.76216,78.4706799 152.383253,81.1264589 151.953929,85.247554" id="Fill-62" fill="#000000"></path>
                    <polyline id="Fill-64" fill="#000000" points="150 94.1555847 148.899475 97.5196907 139.798951 99.3235261 139.784961 99.3577707 147.457262 101.920981 146.448307 105 134 100.844415 135.100525 97.4824496 144.290499 95.706866 144.302369 95.6721934 136.542738 93.0811598 137.551693 90"></polyline>
                    <path d="M17.514202,113.372846 C18.4151572,114.770156 18.0298117,116.616894 16.6327637,117.517565 C15.2384391,118.419143 13.3802473,118.021014 12.479292,116.624158 C11.5783368,115.226847 11.9854687,113.385103 13.3825167,112.481709 C14.7795646,111.583308 16.6132468,111.975989 17.514202,113.372846" id="Fill-66" fill="#319B32"></path>
                    <path d="M26.2096134,124.184016 L28.1594674,126.057163 C28.5932042,126.472507 29.4140348,126.815824 30.0836023,126.132209 C30.7671192,125.43695 30.4890046,124.727457 29.9606739,124.221539 L28.0108199,122.348392 L26.2096134,124.184016 Z M22.4772972,127.988967 L24.4955901,129.92724 C25.2946249,130.694959 26.1272252,130.944683 26.9027204,130.156262 C27.7305257,129.311772 27.4096912,128.457793 26.6507608,127.730185 L24.6324679,125.79148 L22.4772972,127.988967 Z M27.3839721,118 L31.9061688,122.34106 C33.5988321,123.913589 35.0064061,126.09943 33.0495775,128.09593 C32.2078229,128.952497 31.0099247,129.155209 29.8830808,128.803266 C30.6232668,130.086391 30.3948466,131.581286 29.3290311,132.666443 C27.0962673,134.945445 24.7196512,134.016851 22.6473046,132.027252 L18,127.569309 L27.3839721,118 Z" id="Fill-68" fill="#000000"></path>
                    <polyline id="Fill-70" fill="#000000" points="35.2411866 126 44 132.160119 42.487056 134.607807 36.5927897 130.461371 35.326327 132.516411 40.7118797 136.304282 39.2521485 138.671531 33.8644672 134.880933 32.4851936 137.115482 38.5361181 141.370077 36.9129174 144 28 137.732175"></polyline>
                    <path d="M52.5505735,142.878425 L55.4629083,143.78453 L55.4864511,138.98382 L55.448521,138.972404 L52.5505735,142.878425 Z M54.9183715,135 L58.318566,136.05663 L59,150 L55.509994,148.915887 L55.4581125,146.436887 L50.9823596,145.044114 L49.4333289,147.025031 L46,145.956562 L54.9183715,135 Z" id="Fill-72" fill="#000000"></path>
                    <path d="M69.4262096,150.056218 L71.0068985,150.103134 C73.5435555,150.121402 74.5788072,149.162738 74.6531095,146.593567 C74.7224307,144.255655 73.4966496,143.088153 71.2156923,143.020893 L69.6329279,142.973146 L69.4262096,150.056218 Z M66.3748325,140 L71.8910549,140.161922 C75.8270035,140.276514 78.1104514,142.735245 77.9958847,146.708159 C77.8726009,150.913992 75.4164727,153.110325 71.5162224,152.995734 L66,152.833811 L66.3748325,140 Z" id="Fill-74" fill="#000000"></path>
                    <path d="M88.1767341,148.138615 C90.3456578,147.775177 90.8387107,145.815912 90.5016711,143.995904 C90.1646315,142.176299 88.9932601,140.497964 86.8239124,140.861402 C84.6545647,141.22484 84.1615118,143.184105 84.4985514,145.001698 C84.8381346,146.821705 86.0073864,148.502053 88.1767341,148.138615 M86.3126297,138.114084 C90.3804217,137.432688 93.2051947,139.879354 93.8657075,143.432434 C94.5241005,146.987124 92.7558086,150.202525 88.6880167,150.885933 C84.6202248,151.567329 81.7975715,149.12026 81.134939,145.56557 C80.4744262,142.012893 82.2448378,138.797492 86.3126297,138.114084" id="Fill-76" fill="#000000"></path>
                    <polyline id="Fill-78" fill="#000000" points="93 138.095317 96.181906 136.826357 103.232937 142.513054 103.26647 142.499793 100.346618 135.163282 103.259846 134 108 145.904683 104.820578 147.173228 97.7356001 141.403232 97.6999972 141.417323 100.657936 148.836303 97.7426379 150"></polyline>
                    <path d="M116.576693,137.574405 C118.356075,136.423865 117.998804,134.445547 116.960626,132.908417 C115.922038,131.371286 114.202544,130.27454 112.423162,131.425481 C110.646241,132.576422 111.001051,134.554339 112.039229,136.091871 C113.077817,137.629001 114.799363,138.725346 116.576693,137.574405 M110.857076,129.10433 C114.191879,126.948172 117.690345,128.122798 119.715838,131.126004 C121.743792,134.128808 121.477172,137.737391 118.14483,139.895557 C114.810438,142.051714 111.311971,140.87749 109.284017,137.874284 C107.256064,134.87148 107.522684,131.260487 110.857076,129.10433" id="Fill-80" fill="#000000"></path>
                    <path d="M122.611845,127.182863 L124.696037,125.12017 C125.445057,124.381301 125.445057,123.586228 124.726521,122.870706 C124.020177,122.166857 123.14182,122.402914 122.446799,123.090334 L120.468428,125.047969 L122.611845,127.182863 Z M116,125.529596 L120.863841,120.719383 C122.548265,119.051848 124.962114,118.170307 126.879518,120.080817 C127.904195,121.102868 128.382349,122.559853 127.765278,123.934694 L127.791407,123.962796 C129.046451,123.195825 130.471767,124.032835 131.458122,124.853849 C131.884889,125.227823 133.321527,126.579317 134,126.593584 L131.543475,129.025496 C131.010887,128.917843 130.038467,128.029385 129.746262,127.790733 C128.721585,126.902275 127.574539,126.0791 126.413122,127.229124 L124.528814,129.093373 L127.989113,132.539986 L125.504282,135 L116,125.529596 Z" id="Fill-82" fill="#000000"></path>
                    <path d="M133.458975,113.42227 C134.337948,112.013425 136.173491,111.573615 137.585202,112.455051 C138.993737,113.333763 139.423467,115.184688 138.542225,116.593987 C137.663706,118.005555 135.822718,118.418132 134.411461,117.538966 C133.002472,116.660253 132.578187,114.831115 133.458975,113.42227" id="Fill-84" fill="#319B32"></path>
                    <path d="M59.3921585,78 C60.2735399,78.1524472 60.5943525,78.1919857 61.5171153,78.1919857 C62.1173591,78.1919857 62.5972981,78.1524472 63.8016252,78 L63.8016252,78.3440253 C60.3149213,81.7899853 56.9067141,85.2754836 53.6213713,88.8759289 L54.1426917,89.6031104 L60.6749822,98.7923369 L63.5593093,102.928386 L64,103.541435 L64,104 C62.3571153,103.770514 61.595612,103.695513 60.393418,103.695513 C59.191224,103.695513 58.5914068,103.770514 57.0684002,104 C54.5027527,99.9805286 51.9366785,95.9594268 49.1334078,92.0924027 C49.1334078,96.0364657 49.1334078,99.9409902 49.2925343,103.885053 C48.0510919,103.733014 47.5685932,103.695513 46.2857694,103.695513 C44.9636973,103.695513 44.4031285,103.733014 43,103.885053 C43.3208126,99.1759007 43.4406907,94.4667482 43.4406907,89.7555576 C43.4406907,85.8510331 43.4406907,81.9045245 43.1616861,78 C44.924449,78.1524472 45.6053225,78.1919857 46.5673337,78.1919857 C47.5685932,78.1919857 48.17097,78.1524472 49.4930422,78 L49.373164,79.8762424 L49.2114779,84.5853949 L49.1334078,88.8359828 L49.1334078,90.061675 C52.6196851,86.0801116 56.1456374,82.1360487 59.3921585,78" id="Fill-86" fill="#FFFFFF"></path>
                    <path d="M91.4565797,94.0059889 L92.3330504,94.0459356 L95.4828271,94.0459356 C96.8401895,94.0459356 97.3176856,94.0459356 98.7132477,94.0059889 C97.6364408,91.0584934 96.3626933,88.1855922 95.2052427,85.2380967 C93.9289486,88.1480912 92.65223,91.0584934 91.4565797,94.0059889 M98.7132477,79.2236733 L100.547257,83.8578976 L102.939831,89.6782943 L105.572639,95.9968018 C106.649446,98.5631732 107.646033,101.281587 109,103.733417 L109,104 C107.48517,103.847958 106.649446,103.808419 105.331556,103.808419 C104.138028,103.808419 103.657985,103.847958 102.301472,104 C101.585016,101.436074 100.747169,98.8297562 99.6707866,96.3807792 C97.9556204,96.2658305 97.3584319,96.2658305 95.1636475,96.2658305 C92.8911903,96.2658305 92.2944262,96.2658305 90.4599922,96.3807792 C89.3831853,98.8297562 88.4651194,101.436074 87.7074922,104 C86.949865,103.847958 86.6311098,103.808419 85.8344341,103.808419 C85.1158554,103.808419 84.798798,103.847958 84,104 L84,103.733417 C87.7877116,96.1887905 92.2137824,85.8882496 95.2052427,78 C95.9628699,78.114541 96.2820495,78.114541 96.8788136,78.114541 C97.3974805,78.114541 97.5973922,78.114541 98.1941563,78" id="Fill-88" fill="#FFFFFF"></path>
                    <path d="M77.8927503,25.1924137 C79.0345735,25.1924137 79.6232803,25.1547497 81,25 C80.5289508,30.6152041 80.2932169,36.1931537 80.2932169,41.8063109 C80.2932169,45.5772095 80.3317382,47.8845361 80.5289508,51 C78.8758823,50.8452503 78.2461419,50.8075863 77.3831798,50.8075863 C76.1241177,50.8075863 75.57142,50.8452503 74,51 C74.5116641,44.4214993 74.6272281,37.8450456 74.6272281,31.2685919 C74.6272281,28.4605804 74.5887068,27.4997402 74.4325278,25 C75.9654265,25.1547497 76.5160306,25.1924137 77.8927503,25.1924137" id="Fill-90" fill="#FFFFFF"></path>
                </g>
            </g>
        </g>
    </g>
</svg>