<?xml version="1.0" encoding="utf-8"?>
<!-- Generator: Adobe Illustrator 25.0.0, SVG Export Plug-In . SVG Version: 6.00 Build 0)  -->
<svg version="1.1" id="Layer_1" xmlns="http://www.w3.org/2000/svg" xmlns:xlink="http://www.w3.org/1999/xlink" x="0px" y="0px"
	 viewBox="0 0 250 155" style="enable-background:new 0 0 250 155;" xml:space="preserve">
<style type="text/css">
	.st0{filter:url(#Adobe_OpacityMaskFilter);}
	.st1{fill-rule:evenodd;clip-rule:evenodd;fill:#FFFFFF;}
	.st2{mask:url(#mask-2_1_);fill-rule:evenodd;clip-rule:evenodd;fill:#2A0321;}
	.st3{filter:url(#Adobe_OpacityMaskFilter_1_);}
	.st4{mask:url(#mask-4_1_);fill-rule:evenodd;clip-rule:evenodd;fill:#FFFFFF;}
	.st5{filter:url(#Adobe_OpacityMaskFilter_2_);}
	.st6{mask:url(#mask-4_2_);fill-rule:evenodd;clip-rule:evenodd;fill:#D9D9D9;}
	.st7{filter:url(#Adobe_OpacityMaskFilter_3_);}
	.st8{mask:url(#mask-4_3_);fill-rule:evenodd;clip-rule:evenodd;fill:#C0C0C2;}
	.st9{filter:url(#Adobe_OpacityMaskFilter_4_);}
	.st10{opacity:0.1084;mask:url(#mask-4_4_);fill-rule:evenodd;clip-rule:evenodd;fill:#FEFEFE;enable-background:new    ;}
	.st11{filter:url(#Adobe_OpacityMaskFilter_5_);}
	.st12{mask:url(#mask-4_5_);fill-rule:evenodd;clip-rule:evenodd;fill:#95A7B1;}
	.st13{filter:url(#Adobe_OpacityMaskFilter_6_);}
	.st14{mask:url(#mask-4_6_);fill-rule:evenodd;clip-rule:evenodd;fill:#88036A;}
	.st15{fill-rule:evenodd;clip-rule:evenodd;fill:#D8D8D8;}
	.st16{filter:url(#Adobe_OpacityMaskFilter_7_);}
	.st17{filter:url(#Adobe_OpacityMaskFilter_8_);}
	.st18{mask:url(#mask-6_2_);fill-rule:evenodd;clip-rule:evenodd;fill:#FFFFFF;}
	.st19{enable-background:new    ;}
	.st20{font-family:'AvenirNext-Medium';}
	.st21{font-size:2.349px;}
	.st22{fill:none;stroke:#88036A;stroke-width:0.2796;stroke-miterlimit:2.2371;}
	.st23{fill:none;stroke:#88036A;stroke-width:0.2796;stroke-linecap:round;stroke-linejoin:round;stroke-miterlimit:2.2371;}
	.st24{fill:#FEFEFE;}
</style>
<desc>Created with Sketch.</desc>
<g id="Page-1">
	<g id="Artboard-Copy-3" transform="translate(-2.000000, -97.000000)">
		<g id="Group-20" transform="translate(2.000000, 97.000000)">
			<g id="Group-11">
				<g id="Group-3" transform="translate(49.180929, 0.000000)">
					<g id="Clip-2">
					</g>
					<defs>
						<filter id="Adobe_OpacityMaskFilter" filterUnits="userSpaceOnUse" x="-21.6" y="5.9" width="194.8" height="131.9">
							<feColorMatrix  type="matrix" values="1 0 0 0 0  0 1 0 0 0  0 0 1 0 0  0 0 0 1 0"/>
						</filter>
					</defs>
					<mask maskUnits="userSpaceOnUse" x="-21.6" y="5.9" width="194.8" height="131.9" id="mask-2_1_">
						<g class="st0">
							<polygon id="path-1_1_" class="st1" points="-21.6,5.9 173.2,5.9 173.2,137.8 -21.6,137.8 							"/>
						</g>
					</mask>
					<path id="Fill-1" class="st2" d="M173.2,131.4c0,3.6-2.9,6.5-6.4,6.5H-15.2c-3.6,0-6.4-2.9-6.4-6.5v-119c0-3.6,2.9-6.5,6.4-6.5
						h181.9c3.6,0,6.4,2.9,6.4,6.5V131.4z"/>
				</g>
				<g id="Clip-5">
				</g>
				<defs>
					<filter id="Adobe_OpacityMaskFilter_1_" filterUnits="userSpaceOnUse" x="34.2" y="13.3" width="182.2" height="117.5">
						<feColorMatrix  type="matrix" values="1 0 0 0 0  0 1 0 0 0  0 0 1 0 0  0 0 0 1 0"/>
					</filter>
				</defs>
				<mask maskUnits="userSpaceOnUse" x="34.2" y="13.3" width="182.2" height="117.5" id="mask-4_1_">
					<g class="st3">
						<polygon id="path-3_1_" class="st1" points="0,149.1 250,149.1 250,5.9 0,5.9 						"/>
					</g>
				</mask>
				<polygon id="Fill-4" class="st4" points="34.2,130.7 216.4,130.7 216.4,13.3 34.2,13.3 				"/>
				<defs>
					<filter id="Adobe_OpacityMaskFilter_2_" filterUnits="userSpaceOnUse" x="0" y="137.5" width="250" height="11.6">
						<feColorMatrix  type="matrix" values="1 0 0 0 0  0 1 0 0 0  0 0 1 0 0  0 0 0 1 0"/>
					</filter>
				</defs>
				<mask maskUnits="userSpaceOnUse" x="0" y="137.5" width="250" height="11.6" id="mask-4_2_">
					<g class="st5">
						<polygon id="path-3_2_" class="st1" points="0,149.1 250,149.1 250,5.9 0,5.9 						"/>
					</g>
				</mask>
				<path id="Fill-6" class="st6" d="M9,149.1c-3.5-0.5-4.6-2.4-4.6-2.4l-4.2-6.2c-0.9-2.4,1.4-3,1.4-3h246.7c0,0,2.3,0.5,1.4,3
					l-4.2,6.2c0,0-1.1,1.9-4.6,2.4H9z"/>
				<defs>
					<filter id="Adobe_OpacityMaskFilter_3_" filterUnits="userSpaceOnUse" x="1.2" y="141.7" width="247.6" height="7.3">
						<feColorMatrix  type="matrix" values="1 0 0 0 0  0 1 0 0 0  0 0 1 0 0  0 0 0 1 0"/>
					</filter>
				</defs>
				<mask maskUnits="userSpaceOnUse" x="1.2" y="141.7" width="247.6" height="7.3" id="mask-4_3_">
					<g class="st7">
						<polygon id="path-3_3_" class="st1" points="0,149.1 250,149.1 250,5.9 0,5.9 						"/>
					</g>
				</mask>
				<path id="Fill-7" class="st8" d="M1.2,141.7l3.3,4.9c0,0,1.1,1.9,4.6,2.4h231.6c3.5-0.5,4.6-2.4,4.6-2.4l3.3-4.9H1.2z"/>
				<defs>
					<filter id="Adobe_OpacityMaskFilter_4_" filterUnits="userSpaceOnUse" x="28.1" y="5.9" width="193.2" height="131.6">
						<feColorMatrix  type="matrix" values="1 0 0 0 0  0 1 0 0 0  0 0 1 0 0  0 0 0 1 0"/>
					</filter>
				</defs>
				<mask maskUnits="userSpaceOnUse" x="28.1" y="5.9" width="193.2" height="131.6" id="mask-4_4_">
					<g class="st9">
						<polygon id="path-3_4_" class="st1" points="0,149.1 250,149.1 250,5.9 0,5.9 						"/>
					</g>
				</mask>
				<path id="Fill-8" class="st10" d="M97.5,5.9H34.5c-3.6,0-6.4,2.9-6.4,6.4V131c0,3.6,2.9,6.4,6.4,6.4h181.8c2,0,3.8-0.9,5-2.3
					L97.5,5.9z"/>
				<defs>
					<filter id="Adobe_OpacityMaskFilter_5_" filterUnits="userSpaceOnUse" x="102.1" y="137.5" width="46.5" height="6.1">
						<feColorMatrix  type="matrix" values="1 0 0 0 0  0 1 0 0 0  0 0 1 0 0  0 0 0 1 0"/>
					</filter>
				</defs>
				<mask maskUnits="userSpaceOnUse" x="102.1" y="137.5" width="46.5" height="6.1" id="mask-4_5_">
					<g class="st11">
						<polygon id="path-3_5_" class="st1" points="0,149.1 250,149.1 250,5.9 0,5.9 						"/>
					</g>
				</mask>
				<polygon id="Fill-9" class="st12" points="102.1,143.6 148.5,143.6 148.5,137.5 102.1,137.5 				"/>
				<defs>
					<filter id="Adobe_OpacityMaskFilter_6_" filterUnits="userSpaceOnUse" x="122.9" y="7.7" width="4.9" height="4.9">
						<feColorMatrix  type="matrix" values="1 0 0 0 0  0 1 0 0 0  0 0 1 0 0  0 0 0 1 0"/>
					</filter>
				</defs>
				<mask maskUnits="userSpaceOnUse" x="122.9" y="7.7" width="4.9" height="4.9" id="mask-4_6_">
					<g class="st13">
						<polygon id="path-3_6_" class="st1" points="0,149.1 250,149.1 250,5.9 0,5.9 						"/>
					</g>
				</mask>
				<path id="Fill-10" class="st14" d="M127.8,10.2c0,1.4-1.1,2.4-2.4,2.4c-1.4,0-2.4-1.1-2.4-2.4s1.1-2.4,2.4-2.4
					C126.7,7.7,127.8,8.8,127.8,10.2"/>
			</g>
			<g id="Group-19" transform="translate(61.000000, 22.000000)">
				<g id="SAlt-Intake_HTML_5" transform="translate(0.000000, 17.462366)">
					<g id="Mask">
						<rect id="path-5_1_" x="-26.9" y="-11.5" class="st15" width="182.3" height="103.8"/>
					</g>
					<defs>
						<filter id="Adobe_OpacityMaskFilter_7_" filterUnits="userSpaceOnUse" x="-31.2" y="-11.5" width="194.6" height="103.8">
							<feColorMatrix  type="matrix" values="1 0 0 0 0  0 1 0 0 0  0 0 1 0 0  0 0 0 1 0"/>
						</filter>
					</defs>
					<mask maskUnits="userSpaceOnUse" x="-31.2" y="-11.5" width="194.6" height="103.8" id="mask-6_1_">
						<g class="st16">
							<rect id="path-5_2_" x="-26.9" y="-11.5" class="st1" width="182.3" height="103.8"/>
						</g>
					</mask>
					<g style="mask:url(#mask-6_1_);enable-background:new    ;">
						
							<image style="overflow:visible;" width="1440" height="768" xlink:href="47F108C0E10E4A10.png"  transform="matrix(0.1351 0 0 0.1351 -31.1665 -11.4795)">
						</image>
					</g>
					<defs>
						<filter id="Adobe_OpacityMaskFilter_8_" filterUnits="userSpaceOnUse" x="-26.9" y="-15.1" width="58.1" height="15.3">
							<feColorMatrix  type="matrix" values="1 0 0 0 0  0 1 0 0 0  0 0 1 0 0  0 0 0 1 0"/>
						</filter>
					</defs>
					<mask maskUnits="userSpaceOnUse" x="-26.9" y="-15.1" width="58.1" height="15.3" id="mask-6_2_">
						<g class="st17">
							<rect id="path-5_3_" x="-26.9" y="-11.5" class="st1" width="182.3" height="103.8"/>
						</g>
					</mask>
					<rect id="Rectangle" x="-26.9" y="-15.1" class="st18" width="58.1" height="15.3"/>
				</g>
				<g id="Group-9" transform="translate(32.818792, 0.000000)">
					<g class="st19">
						<text transform="matrix(1 0 0 1 57.7701 2.2939)" class="st20 st21">Home</text>
					</g>
					<g class="st19">
						<text transform="matrix(1 0 0 1 70.7466 2.2939)" class="st20 st21">Help</text>
					</g>
					<g class="st19">
						<text transform="matrix(1 0 0 1 82.1822 2.2939)" class="st20 st21">Media</text>
					</g>
					<g class="st19">
						<text transform="matrix(1 0 0 1 95.5445 2.2939)" class="st20 st21">Contact</text>
					</g>
					<g id="Group-2" transform="translate(270.951948, 7.923548)">
						<ellipse id="Oval" class="st22" cx="-159.7" cy="-6.3" rx="0.9" ry="0.9"/>
						<line id="Path-2" class="st23" x1="-159.1" y1="-5.6" x2="-158.3" y2="-4.8"/>
					</g>
				</g>
			</g>
		</g>
	</g>
	<rect x="34.1" y="26.6" class="st24" width="182.3" height="9"/>
</g>
<image style="overflow:visible;" width="1500" height="859" xlink:href="logo2.png"  transform="matrix(2.127354e-02 0 0 2.127354e-02 43.5579 15.9459)">
</image>
</svg>
