<?xml version="1.0" encoding="UTF-8"?>
<svg width="350px" height="350px" viewBox="0 0 450 450" version="1.1" xmlns="http://www.w3.org/2000/svg" xmlns:xlink="http://www.w3.org/1999/xlink">
    <!-- Generator: Sketch 61.1 (89650) - https://sketch.com -->
    <title>Group 18</title>
    <desc>Created with Sketch.</desc>
    <defs>
        <polygon id="path-1" points="0.465839972 0.297002392 25.3370385 0.297002392 25.3370385 11.9518065 0.465839972 11.9518065"></polygon>
        <polygon id="path-3" points="0.477599972 0.297002392 25.3511985 0.297002392 25.3511985 11.9518065 0.477599972 11.9518065"></polygon>
        <polygon id="path-5" points="0 0.473509435 4.76123865 0.473509435 4.76123865 11.1647189 0 11.1647189"></polygon>
    </defs>
    <g id="Page-1" stroke="none" stroke-width="1" fill="none" fill-rule="evenodd">
        <g id="Artboard">
            <g id="Group-18" transform="translate(0.000000, -0.500000)">
                <g id="Group-58" transform="translate(0.000000, 195.500000)">
                    <path d="M126.251392,187.46528 C127.591792,203.528508 130.151392,223.386435 135.024592,242.243995" id="Stroke-1" stroke="#491B15" stroke-width="2.60079984" stroke-linecap="round" stroke-linejoin="round"></path>
                    <g id="Group-5" transform="translate(129.599992, 235.350193)">
                        <mask id="mask-2" fill="white">
                            <use xlink:href="#path-1"></use>
                        </mask>
                        <g id="Clip-4"></g>
                        <path d="M0.465839972,6.12470325 C0.465839972,11.9129631 6.03383964,11.9524041 12.9002392,11.9524041 C19.7690388,11.9524041 25.3370385,11.9129631 25.3370385,6.12470325 C25.3370385,2.90727694 19.7690388,0.297002392 12.9002392,0.297002392 C6.03383964,0.297002392 0.465839972,2.90727694 0.465839972,6.12470325" id="Fill-3" fill="#4A1B15" mask="url(#mask-2)"></path>
                    </g>
                    <path d="M91.3564746,186.152255 C92.6680745,202.435396 95.2312743,222.8694 100.236474,242.244473" id="Stroke-6" stroke="#491B15" stroke-width="2.60079984" stroke-linecap="round" stroke-linejoin="round"></path>
                    <g id="Group-10" transform="translate(94.799994, 235.350193)">
                        <mask id="mask-4" fill="white">
                            <use xlink:href="#path-3"></use>
                        </mask>
                        <g id="Clip-9"></g>
                        <path d="M0.477599972,6.12470325 C0.477599972,11.9129631 6.04679964,11.9524041 12.9143992,11.9524041 C19.7831988,11.9524041 25.3511985,11.9129631 25.3511985,6.12470325 C25.3511985,2.90727694 19.7831988,0.297002392 12.9143992,0.297002392 C6.04679964,0.297002392 0.477599972,2.90727694 0.477599972,6.12470325" id="Fill-8" fill="#4A1B15" mask="url(#mask-4)"></path>
                    </g>
                    <path d="M77.7357554,114.90419 C77.7357554,114.90419 44.9049573,87.8763745 2.24015987,97.1115354 L3.14375981,86.4122782 L73.0617556,86.2975409 L77.7357554,114.90419 Z" id="Fill-11" fill="#324A84"></path>
                    <g id="Group-15" transform="translate(0.000000, 85.952612)">
                        <mask id="mask-6" fill="white">
                            <use xlink:href="#path-5"></use>
                        </mask>
                        <g id="Clip-14"></g>
                        <path d="M0.131879992,5.3443698 C-0.380519977,8.24387806 0.67907996,10.9366201 1.90547989,11.1505574 C3.13547981,11.3692755 4.05707976,9.02552621 4.57187973,6.12601795 C5.0878797,3.22770487 4.51307973,0.702288151 3.2878798,0.488350814 C2.05907988,0.272023116 0.649079961,2.44605672 0.131879992,5.3443698" id="Fill-13" fill="#324A84" mask="url(#mask-6)"></path>
                    </g>
                    <path d="M38.2365577,189.88827 C38.2797577,107.645499 73.1457556,95.4056541 73.1457556,95.4056541 C87.6165548,105.014907 96.3165543,117.687407 96.3165543,117.687407 C44.9745573,118.010106 48.2649571,186.434198 48.4761571,190.050815 C48.4965571,190.136868 48.5085571,190.226506 48.5013571,190.318535 C48.4185571,191.556742 45.9549573,192.906101 43.1373574,192.720848 C40.3185576,192.535595 38.0997577,191.381051 38.1837577,190.144039 C38.1897577,190.056791 38.2089577,189.970738 38.2365577,189.88827" id="Fill-16" fill="#ECC67D"></path>
                    <path d="M84.399115,60.3961834 C84.399115,60.3961834 87.7159148,87.5028806 65.4031161,75.4877295 L21.4159187,59.1591714 L19.5691188,73.0854164 C19.5691188,73.0854164 70.7563158,87.8016757 91.9387145,120.535283 C91.9387145,120.535283 89.6623147,110.289 96.8371142,106.344904 C103.396314,102.743824 112.891913,110.400151 112.891913,110.400151 C106.563114,97.336827 113.346713,90.8039695 121.485113,90.5792756 C121.485113,90.5792756 115.381913,77.4418498 122.617913,69.6337346 C122.617913,69.6337346 105.430314,70.5325105 107.014314,56.3421306 C107.014314,56.3421306 97.9699142,69.6337346 84.399115,60.3961834" id="Fill-18" fill="#7F1919"></path>
                    <path d="M17.186159,65.454666 C16.512959,69.2350224 17.9001589,72.7476583 19.4997588,73.0285258 C21.0981587,73.3105884 22.3053587,70.2569018 22.9785586,66.4753503 C23.6517586,62.6949939 22.8993586,59.4022712 21.2997587,59.1202085 C19.7013588,58.8381459 17.8605589,61.6755048 17.186159,65.454666" id="Fill-20" fill="#7F1919"></path>
                    <path d="M57.5619566,158.008858 C54.3663568,191.035285 99.863154,200.906282 123.083153,198.598388 C159.312351,194.994918 184.038349,144.759085 178.689949,91.4026355 C173.34275,38.0461857 141.885952,1.45931558 105.503154,0.0394409615 C72.8391557,-1.23701197 43.0695574,28.6962874 56.7663566,60.5203627 C61.5591563,71.6618367 68.2215559,75.2617208 73.9431556,78.4277544 C85.9311549,85.061007 96.5823542,104.556794 76.4739554,123.656976 C68.5587559,131.172272 60.0663564,132.142758 57.5619566,158.008858" id="Fill-22" fill="#B12128"></path>
                    <path d="M128.576392,33.8501455 C130.588792,34.6867719 134.211592,36.8129983 136.600792,38.4958126 C138.741592,40.0053258 142.179592,43.1020389 144.601191,46.1652869 C147.562791,49.9097879 161.83919,74.449237 163.53599,89.3208699 C164.75159,99.9424403 167.36879,110.9883 165.24239,121.576405 C164.02319,127.633581 162.15839,133.497137 159.66359,139.115681 C156.842391,145.475238 150.251991,148.586293 147.772791,148.609537 C144.829191,148.63649 141.448792,147.60744 139.951192,145.138197 C137.419192,140.968211 137.822392,135.47038 138.250792,130.635875 C138.757192,124.835663 139.772392,119.066526 140.061592,113.247191 C140.614792,102.166672 137.751592,90.5017083 134.409592,79.999656 C130.870792,68.8629626 126.035992,58.4051319 120.560393,48.1026747 C118.589993,44.3880533 115.652393,39.1806512 117.284393,34.8278032 C117.773993,33.522666 117.856793,33.3158997 118.945193,32.4278805 C117.875993,33.3051431 119.989193,32.1290853 118.945193,32.4278805 C118.946393,32.4242949 118.948793,32.4230998 118.951193,32.4195142 C119.431193,32.2581648 119.912393,32.1111576 120.405593,32.0107624 C120.115193,32.1015962 121.498793,32.0597648 122.188793,32.0561793 C122.537993,32.1231094 123.667193,32.2808733 123.689993,32.285654 C125.353193,32.6920154 126.994792,33.1916009 128.576392,33.8501455" id="Fill-24" fill="#FEFEFE" opacity="0.373000372" style="mix-blend-mode: overlay;"></path>
                    <path d="M73.9436356,78.4266787 C68.2208359,75.2618403 61.5584363,71.6619562 56.7644366,60.5204822 C43.0688374,28.696407 72.8384357,-1.23689246 105.503634,0.0395604796 C107.676834,0.122027945 109.834433,0.337160462 111.968033,0.669420683 C81.7040351,2.861382 56.1356367,31.1190381 69.0176359,61.0511424 C73.8116356,72.1926164 80.4752352,75.7913054 86.1920349,78.9585341 C98.1800341,85.5893963 108.834834,105.086378 88.7240347,124.18656 C80.8112352,131.703051 72.3176357,132.673538 69.8144358,158.538443 C67.284836,184.684215 95.2652343,196.313322 118.554833,198.882961 C94.4408344,199.601264 54.5636367,189.000012 57.5624366,158.008978 C60.0668364,132.141683 68.5592359,131.172391 76.4732354,123.654705 C96.5816342,104.556913 85.9280349,85.0587361 73.9436356,78.4266787" id="Fill-26" fill="#C5C5C5" style="mix-blend-mode: multiply;"></path>
                    <path d="M120.918233,76.8428253 C120.918233,86.1855525 116.419433,93.7618026 110.877833,93.7618026 C105.335034,93.7618026 100.838634,86.1855525 100.838634,76.8428253 C100.838634,67.4953174 105.091434,62.8436743 110.637833,62.8436743 C116.181833,62.8436743 120.918233,67.4953174 120.918233,76.8428253" id="Fill-28" fill="#4A1B15"></path>
                    <path d="M117.881873,80.9710988 C117.881873,84.5733733 116.150273,87.4943948 114.011873,87.4943948 C111.872273,87.4943948 110.140673,84.5733733 110.140673,80.9710988 C110.140673,77.3664339 111.872273,74.4478028 114.011873,74.4478028 C116.150273,74.4478028 117.881873,77.3664339 117.881873,80.9710988" id="Fill-30" fill="#FEFEFE"></path>
                    <path d="M113.923313,124.288151 C117.079313,127.29403 124.162913,129.386791 132.392512,129.386791 C140.344912,129.386791 147.224511,127.432671 150.528111,124.591727" id="Stroke-32" stroke="#4A1B15" stroke-width="1.95039988" stroke-linecap="round" stroke-linejoin="round"></path>
                    <path d="M115.662353,121.378364 C114.858353,123.092253 113.286353,125.498152 110.387153,126.980176" id="Stroke-34" stroke="#4A1B15" stroke-width="1.95039988" stroke-linecap="round" stroke-linejoin="round"></path>
                    <path d="M148.842831,121.378364 C149.643231,123.092253 151.217631,125.498152 154.116831,126.980176" id="Stroke-36" stroke="#4A1B15" stroke-width="1.95039988" stroke-linecap="round" stroke-linejoin="round"></path>
                    <path d="M148.911951,108.481169 C148.911951,111.246817 152.673951,113.490172 157.310751,113.490172 C161.94995,113.490172 165.70835,111.246817 165.70835,108.481169 C165.70835,105.716717 161.94995,103.474558 157.310751,103.474558 C152.673951,103.474558 148.911951,105.716717 148.911951,108.481169" id="Fill-38" fill="#F4AEAA"></path>
                    <path d="M98.5247941,108.481169 C98.5247941,111.246817 102.284394,113.490172 106.922394,113.490172 C111.560393,113.490172 115.319993,111.246817 115.319993,108.481169 C115.319993,105.716717 111.560393,103.474558 106.922394,103.474558 C102.284394,103.474558 98.5247941,105.716717 98.5247941,108.481169" id="Fill-40" fill="#F4AEAA"></path>
                    <line x1="126.338152" y1="63.205575" x2="107.615754" y2="55.6807176" id="Stroke-42" stroke="#4A1B15" stroke-width="1.57759991" stroke-linecap="round" stroke-linejoin="round"></line>
                    <path d="M140.077192,76.5241901 C140.077192,85.8681125 144.572391,93.4455578 150.116391,93.4455578 C155.660391,93.4455578 160.15679,85.8681125 160.15679,76.5241901 C160.15679,67.1790726 155.902791,62.5274295 150.353991,62.5274295 C144.811191,62.5274295 140.077192,67.1790726 140.077192,76.5241901" id="Fill-44" fill="#4A1B15"></path>
                    <path d="M143.109951,80.6535393 C143.109951,84.257009 144.845151,87.1768353 146.981151,87.1768353 C149.120751,87.1768353 150.848751,84.257009 150.848751,80.6535393 C150.848751,77.0512648 149.120751,74.1290481 146.981151,74.1290481 C144.845151,74.1290481 143.109951,77.0512648 143.109951,80.6535393" id="Fill-46" fill="#FEFEFE"></path>
                    <line x1="134.656072" y1="62.8893302" x2="153.378471" y2="55.3644728" id="Stroke-48" stroke="#4A1B15" stroke-width="1.57759991" stroke-linecap="round" stroke-linejoin="round"></line>
                    <path d="M83.331475,106.329008 C83.331475,106.329008 60.1702764,132.620592 82.2226751,164.217583" id="Stroke-50" stroke="#4A1B15" stroke-width="2.60079984" stroke-linecap="round" stroke-linejoin="round"></path>
                    <path d="M80.7287952,174.539521 C77.2919954,170.184283 76.9463954,164.747406 79.9535952,162.39051 C82.9655951,160.032418 87.3323948,159.321286 91.4543945,161.835946 C93.6371944,163.166182 93.3971944,167.836948 90.3815946,166.978808 C87.0095948,166.016688 98.0183942,173.282191 92.3987945,178.154943 C89.5079947,180.656456 84.161995,178.892369 80.7287952,174.539521" id="Fill-52" fill="#4A1B15"></path>
                </g>
                <g id="saly-12" transform="translate(171.000000, 0.500000)" fill-rule="nonzero">
                    <path d="M225.05683,450 L54.8933199,450 C37.9292556,449.986172 21.9230311,442.127343 11.5265533,428.707533 C1.13007547,415.287723 -2.49044684,397.812277 1.71722282,381.360105 L63.8501687,138.342272 L67.6888182,123.369924 C69.1648825,117.63896 74.3232034,113.630847 80.2350536,113.621262 L199.731714,113.621262 C205.635104,113.621262 210.78268,117.639878 212.228097,123.369924 L216.083364,138.342272 L278.28278,381.360105 C282.492615,397.820765 278.866087,415.30523 268.45816,428.727236 C258.050234,442.149241 242.029651,450 225.05683,450 L225.05683,450 Z" id="Path" fill="#5DA6D3"></path>
                    <path d="M189.008153,121.14589 C164.338371,123.564581 125.197206,133.736335 89.9284302,125.502847 C84.2867613,124.177537 79.079067,129.379378 77.6436128,134.94568 C77.6436128,134.94568 59.9174224,284.854799 21.076702,364.936652 C5.83751953,396.412763 30.0399452,435.327175 69.715232,428.220201 C108.105286,421.361722 160.749735,417.998748 207.518836,426.646395 C242.119959,433.041016 274.784888,402.724551 262.316466,370.10536 C231.354053,289.228322 206.834492,186.351139 201.309662,130.60529 C200.725466,124.889891 194.766662,120.582634 189.008153,121.14589 Z" id="Path" fill="#A2CCDE"></path>
                    <path d="M95.1886998,91.5714184 C93.4984213,125.786133 76.3636364,182.108562 76.3636364,195.741376 C76.3636364,209.37419 210.376214,229.607807 212.497348,222.940664 C214.618482,216.273522 188.568306,137.694114 190.706011,106.249083 C192.843717,74.8040522 95.8018401,79.1493044 95.1886998,91.5714184 Z" id="Path" fill="#000000" opacity="0.15"></path>
                    <polygon id="Path" fill="#B7D8E8" points="70.673878 192.857143 67.7929517 205.045964 70.673878 217.185102 65.145164 230.003237 65.145164 239.028927 61.1818088 247.276254 61.1818088 268.474203 56.0527608 272.001675 56.0527608 287.320505 50.507394 293.199624 52.8887377 302.225314 41.4482963 316.749221 41.4482963 321.849978 44.5790139 326.039885 37.2018443 334.933087 34.3042652 344.356238 34.3042652 355.0877 26.1277635 361.36428 21.3817288 372.360717 22.6972963 382.264134 17.9679144 391.306384 29.5582306 404.107958 29.5582306 413.18333 41.4482963 421.033196 53.0219597 419.459911 58.5506738 427.574751 67.5098549 427.574751 73.5714571 422.076533 86.5439517 424.494424 98.3507537 417.737577 111.806178 424.42818 123.396494 419.98986 128.142529 419.98986 131.556343 425.918661 141.547995 424.42818 153.721158 419.459911 162.93013 424.163206 171.106632 420.238273 181.664477 424.97469 191.139894 420.768222 203.346362 423.583574 214.070735 421.28161 218.283882 425.935222 230.157295 424.163206 235.419565 417.737577 243.86251 417.737577 249.12478 412.388407 251.506124 404.107958 263.529412 396.937089 258.350406 384.40049 263.529412 377.064012 250.706792 361.629255 255.019855 349.208581 239.116476 334.684674 237.26802 323.953212 242.813387 318.454994 237.001576 299.095304 224.345484 288.628816 223.829248 271.3558 227.259715 265.327633 223.029916 251.731135 215.652747 248.584565 216.70187 239.161414 220.015768 235.76643 220.015768 229.605776 188.508759 225.564916 120.232471 214.303506"></polygon>
                    <polygon id="Path" fill="#E5F0F9" points="70.3743316 192.603722 81.477386 186.877076 98.3907607 195.203751 111.046573 192.982208 120.847315 201.950662 131.08216 199.975956 141.851288 210.803925 153.638892 204.550691 166.211223 208.779851 174.776436 216.777409 189.302237 216.514115 195.112557 211.840645 214.146365 219.640732 220.106952 229.119318 208.870327 239.914375 197.767272 233.167464 186.664218 239.914375 171.85458 237.840934 141.43388 246.677741 124.286757 235.751037 114.769853 237.840934 110.545684 226.91423 97.8564784 226.404098 90.9942899 216.777409 73.0123505 209.240616 73.5466328 200.913941"></polygon>
                    <g id="Group" style="mix-blend-mode: screen;" transform="translate(32.443850, 197.342193)" fill="#EDF1F2">
                        <polygon id="Path" style="mix-blend-mode: multiply;" points="34.7233237 206.023631 32.2014809 217.219844 41.2199918 219.78183 44.8941999 210.215972"></polygon>
                        <polygon id="Path" style="mix-blend-mode: multiply;" points="92.7257096 167.044838 94.8467297 179.305773 104.950802 178.174506 104.666886 167.078111"></polygon>
                        <polygon id="Path" style="mix-blend-mode: multiply;" points="116.240642 161.821048 115.522501 173.649439 125.125545 174.797342 127.296668 164.466215"></polygon>
                        <polygon id="Path" style="mix-blend-mode: multiply;" points="148.239654 219.382559 159.345784 215.572852 156.757137 206.422901 146.486055 208.352709"></polygon>
                        <polygon id="Path" style="mix-blend-mode: multiply;" points="184.013081 206.023631 187.937803 195.492868 179.553928 191.832888 174.727355 200.600205"></polygon>
                        <polygon id="Path" style="mix-blend-mode: multiply;" points="170.618922 179.172683 181.507939 181.185672 183.662361 172.4849 174.309831 169.290735"></polygon>
                        <polygon id="Path" style="mix-blend-mode: multiply;" points="216.095599 157.595434 205.156479 151.606375 199.762073 160.174056 208.630276 166.861839"></polygon>
                        <polygon id="Path" style="mix-blend-mode: multiply;" points="179.21991 136.816726 187.820897 141.741064 192.229947 135.003372 185.265652 129.56331"></polygon>
                        <polygon id="Path" style="mix-blend-mode: multiply;" points="188.05471 112.660855 193.849938 101.730822 185.215549 96.5403042 178.685479 105.424075"></polygon>
                        <polygon id="Path" style="mix-blend-mode: multiply;" points="149.542328 95.5421277 137.985274 91.7157845 134.327766 100.899008 144.031016 105.756801"></polygon>
                        <polygon id="Path" style="mix-blend-mode: multiply;" points="183.411847 50.9569105 176.647964 44.2524917 170.852735 49.409737 175.963225 56.1973372"></polygon>
                        <polygon id="Path" style="mix-blend-mode: multiply;" points="62.5471 54.916344 72.5175648 54.7998901 72.9016865 46.7312967 64.083587 45.5501212"></polygon>
                        <polygon id="Path" style="mix-blend-mode: multiply;" points="166.059564 80.0204831 172.439325 88.7878001 179.887947 84.0464617 175.395393 75.47878"></polygon>
                        <polygon id="Path" style="mix-blend-mode: multiply;" points="127.647388 85.1610921 121.451337 93.4625934 127.931304 98.8527465 134.478075 92.3313267"></polygon>
                        <polygon id="Path" style="mix-blend-mode: multiply;" points="109.543562 128.265681 116.324146 136.484001 123.338544 131.376664 118.428466 123.258162"></polygon>
                        <polygon id="Path" style="mix-blend-mode: multiply;" points="166.844508 150.69138 160.898972 142.755876 154.135088 147.197762 158.360428 154.966902"></polygon>
                        <polygon id="Path" style="mix-blend-mode: multiply;" points="128.883258 182.566483 139.421555 185.544376 142.34422 177.159693 133.425915 173.183624"></polygon>
                        <polygon id="Path" style="mix-blend-mode: multiply;" points="59.1902098 199.834936 64.1336898 208.336073 71.2816948 204.726001 68.0250103 196.607499"></polygon>
                        <polygon id="Path" style="mix-blend-mode: multiply;" points="63.0982312 167.211201 68.4425339 175.130068 75.1396133 171.187271 71.4654052 163.501311"></polygon>
                        <polygon id="Path" style="mix-blend-mode: multiply;" points="104.867297 148.595209 113.334677 153.50291 117.727026 146.881673 110.896339 141.458247"></polygon>
                        <polygon id="Path" style="mix-blend-mode: multiply;" points="149.0413 108.867784 143.513287 116.736742 149.675936 121.594535 155.588071 115.355931"></polygon>
                        <polygon id="Path" style="mix-blend-mode: multiply;" points="78.7470177 73.6487897 73.5363225 84.612095 82.2375154 89.3367971 88.249856 80.3199361"></polygon>
                        <polygon id="Path" style="mix-blend-mode: multiply;" points="132.941588 59.9737716 123.839572 64.1162041 126.79564 71.6857093 135.363225 69.190268"></polygon>
                        <polygon id="Path" style="mix-blend-mode: multiply;" points="113.000658 43.3874054 111.998601 33.3890041 103.798437 33.7383658 103.397614 42.6886818"></polygon>
                        <polygon id="Path" style="mix-blend-mode: multiply;" points="151.279227 48.6111958 150.794899 60.2898609 160.281037 61.2214923 162.218346 50.9735468"></polygon>
                        <polygon id="Path" style="mix-blend-mode: multiply;" points="96.4834225 56.8794245 87.030687 58.5929608 87.9993418 66.3121924 96.5502262 66.0127395"></polygon>
                        <polygon id="Path" style="mix-blend-mode: multiply;" points="99.0219663 78.6895811 97.4353764 88.9208903 105.685644 90.6843354 108.424599 81.8504734"></polygon>
                        <polygon id="Path" style="mix-blend-mode: multiply;" points="113.267873 97.9044788 106.904813 105.673619 112.933854 111.196863 119.56413 105.157895"></polygon>
                        <polygon id="Path" style="mix-blend-mode: multiply;" points="138.770218 134.25474 135.079309 143.637599 142.544632 147.081308 147.037186 139.278895"></polygon>
                        <polygon id="Path" style="mix-blend-mode: multiply;" points="49.6706705 135.685459 48.8022213 124.056703 39.299383 124.223066 38.5478404 134.587465"></polygon>
                        <polygon id="Path" style="mix-blend-mode: multiply;" points="86.5964624 201.548473 94.1953928 207.936802 99.7735088 202.09747 93.8947758 195.476232"></polygon>
                        <polygon id="Path" style="mix-blend-mode: multiply;" points="28.3435623 151.606375 18.2394899 155.881897 21.2623612 164.249944 30.7317976 161.787775"></polygon>
                        <polygon id="Path" style="mix-blend-mode: multiply;" points="0.269271905 194.86069 10.3900452 194.943871 10.9411765 186.758824 2.02287125 185.378013"></polygon>
                        <polygon id="Path" style="mix-blend-mode: multiply;" points="29.4792267 97.9543876 22.1976142 92.0152374 17.0036199 97.6216621 22.6652406 103.810356"></polygon>
                        <polygon id="Path" style="mix-blend-mode: multiply;" points="77.711559 134.271376 69.4612916 140.110709 73.8369395 147.064672 81.8867956 142.972148"></polygon>
                        <polygon id="Path" style="mix-blend-mode: multiply;" points="80.6008227 120.113906 77.0602221 108.867784 67.7243933 111.196863 69.3944879 121.577898"></polygon>
                        <polygon id="Path" style="mix-blend-mode: multiply;" points="51.691485 85.2110009 43.2074044 93.4293208 49.4869601 100.682737 58.0545455 94.527315"></polygon>
                        <polygon id="Path" style="mix-blend-mode: multiply;" points="41.771123 50.2249144 47.6832579 41.7237779 41.0195804 36.5332601 34.7066228 43.2875877"></polygon>
                        <polygon id="Path" style="mix-blend-mode: multiply;" points="52.7436446 13.9744711 60.4928836 6.68778258 54.9147676 0.0831813754 47.1321267 5.50660705"></polygon>
                    </g>
                    <path d="M217.112299,139.036545 L64.3850267,139.036545 L68.2361347,123.643709 C69.7169896,117.751794 74.892052,113.631116 80.8230893,113.621262 L200.70758,113.621262 C206.630129,113.62424 211.794412,117.752739 213.24452,123.643709 L217.112299,139.036545 Z" id="Path" fill="#A6CAE2" style="mix-blend-mode: multiply;"></path>
                    <path d="M88.382675,131.928685 C87.204191,122.620271 112.134937,122.933852 118.060553,122.636775 C123.98617,122.339698 146.576546,123.329955 148.203186,130.756881 C149.829826,138.183808 89.1130031,137.045013 88.382675,131.928685 Z" id="Path" fill="#B8D1A1" opacity="0.8" style="mix-blend-mode: screen;"></path>
                    <path d="M202.635442,146.511628 C170.393415,146.511628 241.402247,317.942525 162.789476,377.730876 C124.404529,406.944507 56.3177351,397.649261 55.4045984,413.31839 C54.4914617,428.987519 231.0755,450.814749 253.671483,410.928184 C260.212863,399.309126 252.940974,330.076141 235.309134,266.005337 C218.424406,204.391134 206.055554,146.511628 202.635442,146.511628 Z" id="Path" fill="#8DB9E5" opacity="0.5" style="mix-blend-mode: multiply;"></path>
                    <path d="M34.6022132,422.835125 C-2.14901101,405.580317 10.4551995,370.821352 39.8429112,275.20511 C60.009648,209.643486 69.6949886,132.578656 78.7003653,134.590055 C106.462797,140.707367 56.0791244,432.908742 34.6022132,422.835125 Z" id="Path" fill="#A1CED1" opacity="0.5" style="mix-blend-mode: screen;"></path>
                    <path d="M115.268976,128.586338 C116.37146,123.398709 80.8915454,109.149357 72.4725827,132.925989 C59.3931228,169.804709 43.9416535,252.174944 37.2599371,279.127336 C30.5782207,306.079728 11.1678345,373.302751 10.5330714,387.934525 C9.39717962,414.637512 27.1037281,433.725325 48.2012478,437.632674 C69.2987674,441.540023 21.4743821,416.799024 26.4856694,386.088926 C31.4969567,355.378829 46.5308186,289.652237 49.4707739,273.873199 C52.4107291,258.094161 69.850009,162.272671 75.3290164,144.548273 C80.8080239,126.823875 113.147531,138.54592 115.268976,128.586338 Z" id="Path" fill="#A1CED1" opacity="0.8" style="mix-blend-mode: screen;"></path>
                    <path d="M167.906717,126.388873 C165.098299,131.541389 191.77827,133.66888 199.367686,144.057018 C205.168406,152.018487 214.596667,217.189511 223.489991,249.268081 C232.383315,281.346652 253.580184,378.912045 253.162265,393.870964 C252.276276,424.437022 194.88759,430.088169 201.52415,432.930364 C230.945672,445.545719 277.568755,423.738939 270.246808,389.25032 C266.903453,373.244277 237.933284,267.63431 231.68121,246.558855 C225.429137,225.4834 222.052348,145.419942 203.396428,126.654809 C196.559268,119.806949 169.812429,122.948322 167.906717,126.388873 Z" id="Path" fill="#A1CED1" opacity="0.8" style="mix-blend-mode: screen;"></path>
                    <path d="M180.434476,151.122108 C188.739062,145.757132 212.223894,314.223982 216.359376,325.152636 C220.494859,336.081289 234.66645,399.46748 231.674109,404.170112 C223.890661,416.406893 198.169979,310.879152 194.135362,260.524553 C190.100745,210.169954 171.894537,156.63611 180.434476,151.122108 Z" id="Path" fill="#A1CED1" opacity="0.8" style="mix-blend-mode: screen;"></path>
                    <path d="M150.170655,149.590519 C158.844318,144.908537 165.81333,326.758698 168.988659,337.998775 C172.163988,349.238851 178.46451,420.232304 167.501268,420.099668 C146.661081,419.867043 152.159414,322.27595 152.343249,271.620892 C152.527084,220.965835 141.263021,154.421926 150.170655,149.590519 Z" id="Path" fill="#A1CED1" opacity="0.8" style="mix-blend-mode: screen;"></path>
                    <path d="M115.957055,151.041986 C125.388451,147.713148 103.071433,328.885171 104.442964,340.502816 C105.814496,352.120462 100.683952,423.390889 89.7286325,421.560028 C68.9186056,418.064748 90.1350122,322.294071 98.465796,272.178411 C106.79658,222.062751 106.25474,154.47069 115.957055,151.041986 Z" id="Path" fill="#A1CED1" opacity="0.8" style="mix-blend-mode: screen;"></path>
                    <path d="M85.1727828,143.537493 C63.9710758,141.876955 45.1065648,270.834266 61.8008223,279.2864 C76.5752402,286.709001 103.486383,144.998765 85.1727828,143.537493 Z" id="Path" fill="#A1CED1" opacity="0.8" style="mix-blend-mode: screen;"></path>
                    <path d="M60.1667186,299.022788 C39.2063674,297.363285 17.8004023,402.343438 34.3376244,410.790308 C48.8613323,418.241476 78.2718409,300.499745 60.1667186,299.022788 Z" id="Path" fill="#A1CED1" opacity="0.8" style="mix-blend-mode: screen;"></path>
                    <path d="M174.323093,151.235777 C153.107731,156.817534 203.150831,382.837271 226.120349,375.052626 C247.534295,367.781435 206.857727,142.656104 174.323093,151.235777 Z" id="Path" fill="#A1CED1" opacity="0.4" style="mix-blend-mode: screen;"></path>
                    <path d="M109.295578,154.249348 C80.2866787,158.908162 26.1621362,371.399979 41.6688922,406.191333 C50.4659942,425.958014 140.226255,428.403891 169.533361,403.479238 C189.463518,386.524484 167.213974,144.931721 109.295578,154.249348 Z" id="Path" fill="#A1CED1" opacity="0.4" style="mix-blend-mode: screen;"></path>
                    <path d="M215.614973,72.8950731 L215.614973,100.751654 C215.614973,107.859343 209.816661,113.621262 202.664081,113.621262 L81.8279248,113.621262 C74.6753443,113.621262 68.8770053,107.859343 68.8770053,100.751654 L68.8770053,72.8950731 C68.8723867,67.4866279 69.4697398,62.0942639 70.6581961,56.8163338 C78.23469,23.5882756 107.95214,0 142.23768,0 C176.523219,0 206.240669,23.5882756 213.817163,56.8163338 C215.011218,62.0936429 215.614973,67.4860143 215.614973,72.8950731 Z" id="Path" fill="#62928B"></path>
                    <path d="M174.338666,113.621262 L96.6607234,113.621262 C92.0665552,113.621262 88.342246,109.921016 88.342246,105.35655 L88.342246,46.925154 C88.342246,21.040128 115.893043,2.99003322 141.963152,2.99003322 C160.263802,2.99003322 182.673797,21.040128 182.673797,46.925154 L182.673797,105.340021 C182.678208,107.537684 181.801469,109.646604 180.237371,111.200589 C178.673273,112.754575 176.55063,113.625646 174.338666,113.621262 L174.338666,113.621262 Z" id="Path" fill="#B5E7E0" opacity="0.5" style="mix-blend-mode: screen;"></path>
                    <path d="M214.117647,56.8106312 L70.3743316,56.8106312 C77.9817513,23.5859081 107.820503,0 142.245989,0 C176.671476,0 206.510227,23.5859081 214.117647,56.8106312 L214.117647,56.8106312 Z" id="Path" fill="#B5E7E0" opacity="0.5" style="mix-blend-mode: screen;"></path>
                    <path d="M198.908489,39.1262968 C187.49276,52.3237164 91.7749736,54.6332648 88.372047,34.573187 C87.7518092,30.9109031 96.518955,1.7446057 142.433319,3.03135411 C186.587548,4.31810252 201.238572,36.3878322 198.908489,39.1262968 Z" id="Path" fill="#B5E7E0" opacity="0.5" style="mix-blend-mode: screen;"></path>
                    <path d="M215.614973,100.166113 L215.614973,101.188832 C215.614973,108.055074 209.81666,113.621262 202.664078,113.621262 L81.8279003,113.621262 C74.6753185,113.621262 68.8770053,108.055074 68.8770053,101.188832 L68.8770053,100.166113 L215.614973,100.166113 Z" id="Path" fill="#C3C1B8" opacity="0.6" style="mix-blend-mode: multiply;"></path>
                    <path d="M110.786126,21.9424271 C111.077536,23.8972134 107.357778,26.0326943 102.386674,26.7061921 C97.4155689,27.3796899 93.1987009,26.3283762 92.8558661,24.4064435 C92.5130313,22.4845107 96.2842141,20.3161763 101.27246,19.6426785 C106.260707,18.9691807 110.494717,19.9876408 110.786126,21.9424271 Z" id="Path" fill="#699790" opacity="0.5" style="mix-blend-mode: multiply;"></path>
                    <path d="M151.229947,21.642973 C151.229947,23.7290427 146.530866,25.4152824 140.748663,25.4152824 C134.966461,25.4152824 130.26738,23.676891 130.26738,21.642973 C130.26738,19.6090551 134.983124,17.9401993 140.765327,17.9401993 C146.547529,17.9401993 151.229947,19.5569033 151.229947,21.642973 Z" id="Path" fill="#699790" opacity="0.5" style="mix-blend-mode: multiply;"></path>
                    <path d="M188.649485,24.3043575 C188.390674,26.2702028 184.492327,27.3605035 179.963128,26.7327546 C175.433928,26.1050057 171.875271,24.0070027 172.214961,22.0411575 C172.554651,20.0753122 176.355944,18.9850114 180.901319,19.6127603 C185.446694,20.2405093 188.908297,22.3385122 188.649485,24.3043575 Z" id="Path" fill="#699790" opacity="0.5" style="mix-blend-mode: multiply;"></path>
                    <path d="M133.262032,38.0839167 C133.262032,40.1506839 127.940107,41.8289611 121.283422,41.8600403 C114.626738,41.8911195 109.304813,40.2128424 109.304813,38.1460751 C109.304813,36.0793079 114.609626,34.4010307 121.197861,34.3854911 C127.786096,34.3699515 133.262032,36.0171495 133.262032,38.0839167 Z" id="Path" fill="#699790" opacity="0.5" style="mix-blend-mode: multiply;"></path>
                    <path d="M170.693698,36.1949189 C170.790434,38.225367 166.163202,40.0920694 160.375131,40.3376881 C154.587061,40.5833068 149.830846,39.1750928 149.73411,37.0627717 C149.637373,34.9504507 154.264605,33.1819958 160.052676,32.9200025 C165.840747,32.6580092 170.613084,34.1644707 170.693698,36.1949189 Z" id="Path" fill="#699790" opacity="0.5" style="mix-blend-mode: multiply;"></path>
                    <path d="M170.683666,11.0837933 C170.414779,13.0012315 165.507604,13.9518941 159.726547,13.1945866 C153.945491,12.4372791 149.475255,10.29426 149.744142,8.36070889 C150.013028,6.42715781 154.920204,5.49260812 160.70126,6.2338027 C166.482317,6.97499728 170.952552,9.23080688 170.683666,11.0837933 Z" id="Path" fill="#699790" opacity="0.5" style="mix-blend-mode: multiply;"></path>
                    <path d="M131.751685,9.71645661 C132.037565,11.6538413 127.581196,13.9331175 121.813142,14.6820225 C116.045087,15.4309275 111.10104,14.5680587 110.81516,12.630674 C110.529279,10.6932893 114.985648,8.47913527 120.770519,7.7465108 C126.555391,7.01388632 131.415355,7.79535243 131.751685,9.71645661 Z" id="Path" fill="#699790" opacity="0.5" style="mix-blend-mode: multiply;"></path>
                    <path d="M109.294062,22.4566091 C109.490618,23.6386874 106.968159,24.934701 103.675859,25.3049906 C100.383559,25.6752802 97.5335081,25.091362 97.3369529,23.8807998 C97.1403977,22.6702377 99.6628564,21.388466 102.971536,21.0324183 C106.280216,20.6763706 109.097507,21.2745307 109.294062,22.4566091 Z" id="Path" fill="#699790" opacity="0.5" style="mix-blend-mode: multiply;"></path>
                    <path d="M149.73262,21.6777409 C149.73262,22.9170309 146.333469,23.9202658 142.237491,23.9202658 C138.141514,23.9202658 134.759358,22.9170309 134.759358,21.6777409 C134.759358,20.4384508 138.15851,19.4352159 142.237491,19.4352159 C146.316473,19.4352159 149.73262,20.4384508 149.73262,21.6777409 Z" id="Path" fill="#699790" opacity="0.5" style="mix-blend-mode: multiply;"></path>
                    <path d="M187.156157,24.8635671 C186.971131,26.4262883 184.128453,27.2923747 180.831619,26.7463637 C177.534786,26.2003527 175.011699,24.5811476 175.196726,22.9807704 C175.381752,21.3803933 178.207609,20.5519628 181.521263,21.0979738 C184.834917,21.6439848 187.341183,23.3008458 187.156157,24.8635671 Z" id="Path" fill="#699790" opacity="0.5" style="mix-blend-mode: multiply;"></path>
                    <path d="M130.26738,37.3124748 C130.26738,38.9825339 126.580944,40.3473134 122.048996,40.365271 C117.517048,40.3832286 113.796791,39.0364068 113.796791,37.3663477 C113.796791,35.6962886 117.466317,34.3853821 122.015175,34.3853821 C126.564034,34.3853821 130.26738,35.6424158 130.26738,37.3124748 Z" id="Path" fill="#699790" opacity="0.5" style="mix-blend-mode: multiply;"></path>
                    <path d="M169.197861,35.5025871 C169.197861,37.1460675 165.910855,38.6384233 161.818533,38.8462196 C157.726211,39.054016 154.29129,37.9016907 154.22555,36.2582103 C154.159809,34.6147299 157.512555,33.1223741 161.604878,32.9145777 C165.6972,32.7067813 169.132121,33.8591067 169.197861,35.5025871 Z" id="Path" fill="#699790" opacity="0.5" style="mix-blend-mode: multiply;"></path>
                    <path d="M169.189915,11.5556648 C169.001448,13.0882203 165.489122,13.8452658 161.359997,13.254401 C157.230872,12.6635362 154.044079,10.927871 154.232545,9.37685093 C154.421012,7.8258309 157.933338,7.08724993 162.062463,7.6781147 C166.191587,8.26897948 169.378381,10.0415738 169.189915,11.5556648 Z" id="Path" fill="#699790" opacity="0.5" style="mix-blend-mode: multiply;"></path>
                    <path d="M130.257897,9.32169616 C130.463946,10.8370288 127.287355,12.5714456 123.149201,13.2104413 C119.011047,13.849437 115.491041,13.2104413 115.302163,11.6038236 C115.113284,9.99720589 118.272705,8.3358171 122.410858,7.69682142 C126.549012,7.05782573 130.051848,7.86113459 130.257897,9.32169616 Z" id="Path" fill="#699790" opacity="0.5" style="mix-blend-mode: multiply;"></path>
                    <path d="M79.3582888,62.0272338 C79.3582888,77.5328571 154.190911,71.6110286 154.224599,64.1716285 C154.308572,49.7711932 79.3750975,51.6846531 79.3582888,62.0272338 Z" id="Path" fill="#C2D0A2" opacity="0.4" style="mix-blend-mode: screen;"></path>
                    <path d="M79.3582888,99.7704171 C79.3582888,115.217912 166.152932,108.545909 166.203209,101.134398 C166.270154,86.7879475 79.3750348,89.4501754 79.3582888,99.7704171 Z" id="Path" fill="#C2D0A2" opacity="0.4" style="mix-blend-mode: screen;"></path>
                </g>
                <g id="Group-5" transform="translate(177.000000, 222.500000)">
                    <path d="M34.0574857,17.7908751 C34.0574857,17.7908751 17.1218854,77.237458 0.186285004,72.6914946" id="Stroke-1" stroke="#4A1B14" stroke-width="2.44860005" stroke-linecap="round" stroke-linejoin="round"></path>
                    <path d="M32.3091457,4.46795765 C29.0767956,8.55506386 28.7500956,13.6598497 31.5831457,15.8721967 C34.4161957,18.0861824 38.5279958,18.7548029 42.4054959,16.3916885 C44.461396,15.1429416 44.232046,10.7608557 41.3973459,11.5671333 C38.2210958,12.4700986 48.5847461,5.64787604 43.2948459,1.07733104 C40.5756459,-1.27103431 35.5414958,0.382490212 32.3091457,4.46795765" id="Fill-3" fill="#4A1B14"></path>
                </g>
            </g>
        </g>
    </g>
</svg>