<?xml version="1.0" encoding="utf-8"?>
<!-- Generator: Adobe Illustrator 25.0.0, SVG Export Plug-In . SVG Version: 6.00 Build 0)  -->
<svg version="1.1" id="Layer_1" xmlns="http://www.w3.org/2000/svg" xmlns:xlink="http://www.w3.org/1999/xlink" x="0px" y="0px"
	 viewBox="0 0 447 256" style="enable-background:new 0 0 447 256;" xml:space="preserve">
<style type="text/css">
	.st0{filter:url(#Adobe_OpacityMaskFilter);}
	.st1{fill-rule:evenodd;clip-rule:evenodd;fill:#FFFFFF;}
	.st2{mask:url(#mask-2_1_);fill-rule:evenodd;clip-rule:evenodd;fill:#2A0321;}
	.st3{filter:url(#Adobe_OpacityMaskFilter_1_);}
	.st4{mask:url(#mask-4_1_);fill-rule:evenodd;clip-rule:evenodd;fill:#FFFFFF;}
	.st5{filter:url(#Adobe_OpacityMaskFilter_2_);}
	.st6{mask:url(#mask-4_2_);fill-rule:evenodd;clip-rule:evenodd;fill:#D9D9D9;}
	.st7{filter:url(#Adobe_OpacityMaskFilter_3_);}
	.st8{mask:url(#mask-4_3_);fill-rule:evenodd;clip-rule:evenodd;fill:#C0C0C2;}
	.st9{filter:url(#Adobe_OpacityMaskFilter_4_);}
	.st10{opacity:0.1084;mask:url(#mask-4_4_);fill-rule:evenodd;clip-rule:evenodd;fill:#FEFEFE;enable-background:new    ;}
	.st11{filter:url(#Adobe_OpacityMaskFilter_5_);}
	.st12{mask:url(#mask-4_5_);fill-rule:evenodd;clip-rule:evenodd;fill:#95A7B1;}
	.st13{filter:url(#Adobe_OpacityMaskFilter_6_);}
	.st14{mask:url(#mask-4_6_);fill-rule:evenodd;clip-rule:evenodd;fill:#88036A;}
	.st15{fill-rule:evenodd;clip-rule:evenodd;fill:#D8D8D8;}
	.st16{filter:url(#Adobe_OpacityMaskFilter_7_);}
	.st17{filter:url(#Adobe_OpacityMaskFilter_8_);}
	.st18{mask:url(#mask-6_2_);fill-rule:evenodd;clip-rule:evenodd;fill:#FFFFFF;}
	.st19{enable-background:new    ;}
	.st20{font-family:'AvenirNext-Medium';}
	.st21{font-size:4.2px;}
	.st22{fill:none;stroke:#88036A;stroke-width:0.5;}
	.st23{fill:none;stroke:#88036A;stroke-width:0.5;stroke-linecap:round;stroke-linejoin:round;}
</style>
<desc>Created with Sketch.</desc>
<g id="Page-1">
	<g id="Artboard-Copy-3" transform="translate(-2.000000, -97.000000)">
		<g id="Group-20" transform="translate(2.000000, 97.000000)">
			<g id="Group-11">
				<g id="Group-3" transform="translate(49.180929, 0.000000)">
					<g id="Clip-2">
					</g>
					<defs>
						<filter id="Adobe_OpacityMaskFilter" filterUnits="userSpaceOnUse" x="0.1" y="0" width="348.3" height="235.8">
							<feColorMatrix  type="matrix" values="1 0 0 0 0  0 1 0 0 0  0 0 1 0 0  0 0 0 1 0"/>
						</filter>
					</defs>
					<mask maskUnits="userSpaceOnUse" x="0.1" y="0" width="348.3" height="235.8" id="mask-2_1_">
						<g class="st0">
							<polygon id="path-1_1_" class="st1" points="0.1,0 348.4,0 348.4,235.9 0.1,235.9 							"/>
						</g>
					</mask>
					<path id="Fill-1" class="st2" d="M348.4,224.3c0,6.4-5.2,11.6-11.5,11.6H11.6c-6.4,0-11.5-5.2-11.5-11.6V11.6
						C0.1,5.2,5.2,0,11.6,0h325.3c6.4,0,11.5,5.2,11.5,11.6V224.3z"/>
				</g>
				<g id="Clip-5">
				</g>
				<defs>
					<filter id="Adobe_OpacityMaskFilter_1_" filterUnits="userSpaceOnUse" x="61.2" y="13.1" width="325.7" height="210.1">
						<feColorMatrix  type="matrix" values="1 0 0 0 0  0 1 0 0 0  0 0 1 0 0  0 0 0 1 0"/>
					</filter>
				</defs>
				<mask maskUnits="userSpaceOnUse" x="61.2" y="13.1" width="325.7" height="210.1" id="mask-4_1_">
					<g class="st3">
						<polygon id="path-3_1_" class="st1" points="0,256 447,256 447,0 0,0 						"/>
					</g>
				</mask>
				<polygon id="Fill-4" class="st4" points="61.2,223.2 386.9,223.2 386.9,13.1 61.2,13.1 				"/>
				<defs>
					<filter id="Adobe_OpacityMaskFilter_2_" filterUnits="userSpaceOnUse" x="0" y="235.2" width="447" height="20.8">
						<feColorMatrix  type="matrix" values="1 0 0 0 0  0 1 0 0 0  0 0 1 0 0  0 0 0 1 0"/>
					</filter>
				</defs>
				<mask maskUnits="userSpaceOnUse" x="0" y="235.2" width="447" height="20.8" id="mask-4_2_">
					<g class="st5">
						<polygon id="path-3_2_" class="st1" points="0,256 447,256 447,0 0,0 						"/>
					</g>
				</mask>
				<path id="Fill-6" class="st6" d="M16.1,256c-6.3-0.9-8.3-4.4-8.3-4.4l-7.5-11.1c-1.6-4.4,2.6-5.3,2.6-5.3h441.2
					c0,0,4.1,0.9,2.6,5.3l-7.5,11.1c0,0-2,3.5-8.3,4.4H16.1z"/>
				<defs>
					<filter id="Adobe_OpacityMaskFilter_3_" filterUnits="userSpaceOnUse" x="2.2" y="242.9" width="442.6" height="13.1">
						<feColorMatrix  type="matrix" values="1 0 0 0 0  0 1 0 0 0  0 0 1 0 0  0 0 0 1 0"/>
					</filter>
				</defs>
				<mask maskUnits="userSpaceOnUse" x="2.2" y="242.9" width="442.6" height="13.1" id="mask-4_3_">
					<g class="st7">
						<polygon id="path-3_3_" class="st1" points="0,256 447,256 447,0 0,0 						"/>
					</g>
				</mask>
				<path id="Fill-7" class="st8" d="M2.2,242.9l6,8.8c0,0,2,3.4,8.3,4.3h414.1c6.3-0.9,8.3-4.3,8.3-4.3l6-8.8H2.2z"/>
				<defs>
					<filter id="Adobe_OpacityMaskFilter_4_" filterUnits="userSpaceOnUse" x="50.3" y="0" width="345.4" height="235.2">
						<feColorMatrix  type="matrix" values="1 0 0 0 0  0 1 0 0 0  0 0 1 0 0  0 0 0 1 0"/>
					</filter>
				</defs>
				<mask maskUnits="userSpaceOnUse" x="50.3" y="0" width="345.4" height="235.2" id="mask-4_4_">
					<g class="st9">
						<polygon id="path-3_4_" class="st1" points="0,256 447,256 447,0 0,0 						"/>
					</g>
				</mask>
				<path id="Fill-8" class="st10" d="M174.3,0H61.8c-6.4,0-11.5,5.2-11.5,11.5v212.2c0,6.4,5.1,11.5,11.5,11.5h325
					c3.6,0,6.8-1.6,8.9-4.2L174.3,0z"/>
				<defs>
					<filter id="Adobe_OpacityMaskFilter_5_" filterUnits="userSpaceOnUse" x="182.5" y="235.2" width="83.1" height="10.9">
						<feColorMatrix  type="matrix" values="1 0 0 0 0  0 1 0 0 0  0 0 1 0 0  0 0 0 1 0"/>
					</filter>
				</defs>
				<mask maskUnits="userSpaceOnUse" x="182.5" y="235.2" width="83.1" height="10.9" id="mask-4_5_">
					<g class="st11">
						<polygon id="path-3_5_" class="st1" points="0,256 447,256 447,0 0,0 						"/>
					</g>
				</mask>
				<polygon id="Fill-9" class="st12" points="182.5,246.2 265.6,246.2 265.6,235.2 182.5,235.2 				"/>
				<defs>
					<filter id="Adobe_OpacityMaskFilter_6_" filterUnits="userSpaceOnUse" x="219.7" y="3.3" width="8.7" height="8.8">
						<feColorMatrix  type="matrix" values="1 0 0 0 0  0 1 0 0 0  0 0 1 0 0  0 0 0 1 0"/>
					</filter>
				</defs>
				<mask maskUnits="userSpaceOnUse" x="219.7" y="3.3" width="8.7" height="8.8" id="mask-4_6_">
					<g class="st13">
						<polygon id="path-3_6_" class="st1" points="0,256 447,256 447,0 0,0 						"/>
					</g>
				</mask>
				<path id="Fill-10" class="st14" d="M228.4,7.7c0,2.4-2,4.4-4.4,4.4c-2.4,0-4.4-2-4.4-4.4s2-4.4,4.4-4.4
					C226.5,3.3,228.4,5.2,228.4,7.7"/>
			</g>
			<g id="Group-19" transform="translate(61.000000, 22.000000)">
				<g id="SAlt-Intake_HTML_5" transform="translate(0.000000, 17.462366)">
					<g id="Mask">
						<rect id="path-5_1_" y="0" class="st15" width="326" height="185.5"/>
					</g>
					<defs>
						<filter id="Adobe_OpacityMaskFilter_7_" filterUnits="userSpaceOnUse" x="-7.7" y="0" width="347.9" height="185.5">
							<feColorMatrix  type="matrix" values="1 0 0 0 0  0 1 0 0 0  0 0 1 0 0  0 0 0 1 0"/>
						</filter>
					</defs>
					<mask maskUnits="userSpaceOnUse" x="-7.7" y="0" width="347.9" height="185.5" id="mask-6_1_">
						<g class="st16">
							<rect id="path-5_2_" y="0" class="st1" width="326" height="185.5"/>
						</g>
					</mask>
					<g style="mask:url(#mask-6_1_);enable-background:new    ;">
						
							<image style="overflow:visible;" width="1440" height="768" xlink:href="9B7399169C513DD7.png"  transform="matrix(0.2416 0 0 0.2416 -7.6577 1.030072e-03)">
						</image>
					</g>
					<defs>
						<filter id="Adobe_OpacityMaskFilter_8_" filterUnits="userSpaceOnUse" x="0" y="-6.5" width="103.9" height="27.3">
							<feColorMatrix  type="matrix" values="1 0 0 0 0  0 1 0 0 0  0 0 1 0 0  0 0 0 1 0"/>
						</filter>
					</defs>
					<mask maskUnits="userSpaceOnUse" x="0" y="-6.5" width="103.9" height="27.3" id="mask-6_2_">
						<g class="st17">
							<rect id="path-5_3_" y="0" class="st1" width="326" height="185.5"/>
						</g>
					</mask>
					<rect id="Rectangle" y="-6.5" class="st18" width="103.9" height="27.3"/>
				</g>
				<g id="Group-9" transform="translate(32.818792, 0.000000)">
					<g class="st19">
						<text transform="matrix(1 0 0 1 177.2215 10.8683)" class="st20 st21">Home</text>
					</g>
					<g class="st19">
						<text transform="matrix(1 0 0 1 200.4244 10.8683)" class="st20 st21">Help</text>
					</g>
					<g class="st19">
						<text transform="matrix(1 0 0 1 220.8705 10.8683)" class="st20 st21">Media</text>
					</g>
					<g class="st19">
						<text transform="matrix(1 0 0 1 244.7626 10.8683)" class="st20 st21">Contact</text>
					</g>
					<g id="Group-2" transform="translate(270.951948, 7.923548)">
						<ellipse id="Oval" class="st22" cx="1.8" cy="1.8" rx="1.6" ry="1.6"/>
						<line id="Path-2" class="st23" x1="3" y1="3" x2="4.4" y2="4.4"/>
					</g>
					
						<image style="overflow:visible;" width="1500" height="859" xlink:href="logo2.png"  transform="matrix(2.941171e-02 0 0 2.941171e-02 -9.4782 -1.1727)">
					</image>
				</g>
			</g>
		</g>
	</g>
</g>
</svg>
